<?xml version="1.0" encoding="utf-8"?>
<!-- Generator: Adobe Illustrator 26.1.0, SVG Export Plug-In . SVG Version: 6.00 Build 0)  -->
<!DOCTYPE svg PUBLIC "-//W3C//DTD SVG 1.0//EN" "http://www.w3.org/TR/2001/REC-SVG-20010904/DTD/svg10.dtd" [
	<!ENTITY ns_flows "http://ns.adobe.com/Flows/1.0/">
	<!ENTITY ns_extend "http://ns.adobe.com/Extensibility/1.0/">
	<!ENTITY ns_ai "http://ns.adobe.com/AdobeIllustrator/10.0/">
	<!ENTITY ns_graphs "http://ns.adobe.com/Graphs/1.0/">
	<!ENTITY ns_vars "http://ns.adobe.com/Variables/1.0/">
	<!ENTITY ns_imrep "http://ns.adobe.com/ImageReplacement/1.0/">
	<!ENTITY ns_sfw "http://ns.adobe.com/SaveForWeb/1.0/">
	<!ENTITY ns_custom "http://ns.adobe.com/GenericCustomNamespace/1.0/">
	<!ENTITY ns_adobe_xpath "http://ns.adobe.com/XPath/1.0/">
]>
<svg version="1.0" id="Layer_1" xmlns:x="&ns_extend;" xmlns:i="&ns_ai;" xmlns:graph="&ns_graphs;"
	 xmlns="http://www.w3.org/2000/svg" xmlns:xlink="http://www.w3.org/1999/xlink" xmlns:a="http://ns.adobe.com/AdobeSVGViewerExtensions/3.0/"
	 x="0px" y="0px" viewBox="0 0 795.856 313.661" style="enable-background:new 0 0 795.856 313.661;" xml:space="preserve">
<metadata><?xpacket begin="﻿" id="W5M0MpCehiHzreSzNTczkc9d"?>
<x:xmpmeta xmlns:x="adobe:ns:meta/" x:xmptk="Adobe XMP Core 7.1-c000 79.b0f8be9, 2021/12/08-19:11:22        ">
   <rdf:RDF xmlns:rdf="http://www.w3.org/1999/02/22-rdf-syntax-ns#">
      <rdf:Description rdf:about=""
            xmlns:dc="http://purl.org/dc/elements/1.1/"
            xmlns:xmp="http://ns.adobe.com/xap/1.0/"
            xmlns:xmpGImg="http://ns.adobe.com/xap/1.0/g/img/"
            xmlns:xmpMM="http://ns.adobe.com/xap/1.0/mm/"
            xmlns:stRef="http://ns.adobe.com/xap/1.0/sType/ResourceRef#"
            xmlns:stEvt="http://ns.adobe.com/xap/1.0/sType/ResourceEvent#"
            xmlns:illustrator="http://ns.adobe.com/illustrator/1.0/"
            xmlns:pdf="http://ns.adobe.com/pdf/1.3/"
            xmlns:pdfx="http://ns.adobe.com/pdfx/1.3/"
            xmlns:xmpTPg="http://ns.adobe.com/xap/1.0/t/pg/"
            xmlns:stDim="http://ns.adobe.com/xap/1.0/sType/Dimensions#"
            xmlns:xmpG="http://ns.adobe.com/xap/1.0/g/">
         <dc:format>image/svg+xml</dc:format>
         <dc:title>
            <rdf:Alt>
               <rdf:li xml:lang="x-default">T_logo_all_RGB_edit</rdf:li>
            </rdf:Alt>
         </dc:title>
         <xmp:MetadataDate>2022-03-15T15:41:51+03:00</xmp:MetadataDate>
         <xmp:ModifyDate>2022-03-15T15:41:51+03:00</xmp:ModifyDate>
         <xmp:CreateDate>2022-03-15T15:41:51+03:00</xmp:CreateDate>
         <xmp:CreatorTool>Adobe Illustrator 26.1 (Windows)</xmp:CreatorTool>
         <xmp:Thumbnails>
            <rdf:Alt>
               <rdf:li rdf:parseType="Resource">
                  <xmpGImg:width>256</xmpGImg:width>
                  <xmpGImg:height>152</xmpGImg:height>
                  <xmpGImg:format>JPEG</xmpGImg:format>
                  <xmpGImg:image>/9j/4AAQSkZJRgABAgEASABIAAD/7QAsUGhvdG9zaG9wIDMuMAA4QklNA+0AAAAAABAASAAAAAEA&#xA;AQBIAAAAAQAB/+4ADkFkb2JlAGTAAAAAAf/bAIQABgQEBAUEBgUFBgkGBQYJCwgGBggLDAoKCwoK&#xA;DBAMDAwMDAwQDA4PEA8ODBMTFBQTExwbGxscHx8fHx8fHx8fHwEHBwcNDA0YEBAYGhURFRofHx8f&#xA;Hx8fHx8fHx8fHx8fHx8fHx8fHx8fHx8fHx8fHx8fHx8fHx8fHx8fHx8fHx8f/8AAEQgAmAEAAwER&#xA;AAIRAQMRAf/EAaIAAAAHAQEBAQEAAAAAAAAAAAQFAwIGAQAHCAkKCwEAAgIDAQEBAQEAAAAAAAAA&#xA;AQACAwQFBgcICQoLEAACAQMDAgQCBgcDBAIGAnMBAgMRBAAFIRIxQVEGE2EicYEUMpGhBxWxQiPB&#xA;UtHhMxZi8CRygvElQzRTkqKyY3PCNUQnk6OzNhdUZHTD0uIIJoMJChgZhJRFRqS0VtNVKBry4/PE&#xA;1OT0ZXWFlaW1xdXl9WZ2hpamtsbW5vY3R1dnd4eXp7fH1+f3OEhYaHiImKi4yNjo+Ck5SVlpeYmZ&#xA;qbnJ2en5KjpKWmp6ipqqusra6voRAAICAQIDBQUEBQYECAMDbQEAAhEDBCESMUEFURNhIgZxgZEy&#xA;obHwFMHR4SNCFVJicvEzJDRDghaSUyWiY7LCB3PSNeJEgxdUkwgJChgZJjZFGidkdFU38qOzwygp&#xA;0+PzhJSktMTU5PRldYWVpbXF1eX1RlZmdoaWprbG1ub2R1dnd4eXp7fH1+f3OEhYaHiImKi4yNjo&#xA;+DlJWWl5iZmpucnZ6fkqOkpaanqKmqq6ytrq+v/aAAwDAQACEQMRAD8A9U4q7FXYq7FXYq7FXYq7&#xA;FXYq7FXYq7FXYq7FXmdr5Hl1rzbqd5egx6XHdyexmIY/Cv8Ak+J+ge2vGn45knlbmnNwwAHOkg/M&#xA;WGKDzTPDCgjijjhVEUUAAjUAADKdSKm24DcU48geXrDXPL2pWl2tCJlMMw+3G/DqP4jvlunxicSC&#xA;158hjIEJv+Xmg3+iaxq1neJQhIjHIPsSJyejKct02MwkQWvPMSAIZ5mY4rsVeCf85XeT/MHm+18o&#xA;aDoNsbq/ur+ag6JGgiHKWVv2UXuf44qxH82/ye8v/lr/AM493FnZgXWsXV7ZtquqstHmcMfgT+WJ&#xA;f2V+k74q8H/JiOOX82PKUcih431S2V0YAqymQAgg9QcVe0/nD/zjlJ5Y826d5u8o25fy49/byajp&#xA;0YJayYzLV0HeA/8ACf6vRV9cYq7FXYq7FXYq7FXYq7FXYq7FXYq7FXYq7FXYq7FXYq7FWL61+XPl&#xA;7VliSf1YkiaV0SEoq1mZWaoKMP2Ao8BtkYxA5JlInmnumaRpulwvBp8C28UkjTSKtd3YAFtyetBk&#xA;kIvFXYq7FXi/5l/8pfdf6kX/ACbXNVqvrLsdP9AZT+UH/HN1D/jMn/EcyNFyLRquYZ/ma4rsVdir&#xA;sVeK/wDOXv8A5Ju5/wCY60/4kcVfJX5Kf+Tc8of9tW1/5OjFX6P4q7FXYq7FXYq7FXYq7FXYq7FX&#xA;Yq7FXYqw+6/OH8rLS6mtbrzXpkNzbu0U8L3MYZHQlWVgTsQRQ4qpf8rr/KP/AKm/Sv8ApKi/rirI&#xA;fL3mjy75ksnvtA1K31SzjkMElxayLKiyqqsULLXcK6mnviqaYq7FXYq7FXYq7FXYq7FXi/5l/wDK&#xA;X3X+pF/ybXNVqvrLsdP9AZT+UH/HN1D/AIzJ/wARzI0XItGq5hn+ZriuxV2KuxV4r/zl7/5Ju5/5&#xA;jrT/AIkcVfJX5Kf+Tc8of9tW1/5OjFX6P4q7FXYq7FXYq7FXYq7FXYq7FXYqgNb1mHSLFr2eGWWC&#xA;P+8MIUlR0qeTJ322yGSfCLLOEOI0i4JWliDtE8LEkGOTjyFCR+yWG9K9ckCxIfmn57iEv5jeYYmk&#xA;WESaxeKZZKhEDXTjk3EMaDqaDChb5w8l3Plc6ctzqFnevqdrDfwJaGclbe4hjmhkf1oYaeostABU&#xA;1Vq02qq+s/8AnCr/AMlZqv8A23Lj/qDtMVe/4q7FXYq7FXYq7FXYq7FWMa5+Xui6zqUmoXU1yk0g&#xA;UMsTRhfhUKKBkY9vHMfJpoyNm26GeURQR/lvyvp/l+CaGzklkWdg7mYqxBAptxVMnixCHJjkyGfN&#xA;OMta3Yq7FXYqxf8AMf8ALzRfP/ll/LuszXNvZSSxzmSzaNJeURqorIkq033+HFXnnlf/AJxL/Lny&#xA;35i03X7HUdYkvNLuI7q3jnmtWiZ4m5KHC2yMV23owxV7XirsVdirsVdirsVdirsVdirsVdiqhfWN&#xA;rfWslpdxiW3lAEkZJAIBr2oeowSiCKKQSDYV8KH5l/mF/wAp95l/7at9/wBRL4qlura3quryW0mo&#xA;3BuHs7aGxtiwUcLe2QRwxjiBsiCm++Kvsf8A5wq/8lZqv/bcuP8AqDtMVe/4q7FXYq7FXYq7FXYq&#xA;7FXYq7FXYq7FXYq7FXYq7FXYq7FXYq7FXYq7FXYq7FXYq7FXYqhLjV9JtmlW4vYIWgCmdZJUUoHI&#xA;Cl6kca1FK4OIXSaNWstNe0O8n+r2mo21xcUJ9GKaN3opo3wqSdu+FD5O17/nJb8z4vMvmCx0rypo&#xA;1/aaPeXEMs66fdzMkcczxo87Rz8QW49aAE4qgv8AoZj85Ov+B9IpSv8Axy77oP8Ao4xV7z/zjn+Z&#xA;Gr/mB5IvtZ1WzsrG4t9Tls0i06J4YiiW8EgZlkklPKspFa9KYq9TxV2KuxV2KuxV2Koe+1GzsUje&#xA;6k9MTSCKKisxZyCQoCgnopyMpAc0xiTyQVj5o0G/liitLoSvOzpFRHAZo15uASoFQprkY5YnkWUs&#xA;chzTOOaKUExurhSVYqQaMOoNO+WMF2KuxV2KuxVgtv8Anf8AldcS20MGtepLe28t7aRrbXZaW3gE&#xA;hllQel8Sr9XkqR/KcVZdpusaZqVjZX1lcJNa6jAl1YyD4TLDIgkR1VqNQqwPTFUZirsVdirsVdir&#xA;sVdirsVdirsVdirsVY35nuPJ3pX8eu8vTWK3N78FyAY1lPoUMQ3/AHrn7Pfr02gCOLzZEGvJX8px&#xA;+VJNPSfy/Cv1aJnjScxyByWPNqPOPUZSX61I8MmxfAmvWfmO486efzo7RiBbi+XV/Ult4z9UN9yN&#xA;BOysR6qJum9aDvuqoebn/Mu1srZvMErQW4JWDg9sjMTuai3Id/s9Wrir6g/5wq/8lZqv/bcuP+oO&#xA;0xV7/irsVdirsVdirsVUrqNXgeqhmVWKbVIJUjb3oaYCNkhiP5XWE0GgSrd27RSpePJEJUKsKwov&#xA;JeQr0qK5jaSNR372/UyuW3cwrWfy/wBVm1K/mXyFbXkU7S3Hw6zLbRzO73ZIZEpR3N1y3BUctmHE&#xA;AZTjtaH+WgutZ0/9I+RDp1gxYzakNfvZpYET1GiUQGQNVvRgFAfhDEdiMVZefyQ/LQiMHS5v3Sok&#xA;Z+vX1QsYjCivr70ECdfDFWY6Zptnpem2mm2SGOysYY7a1jLNIVihQIil3LO1FUbsST3xVE4q8H8y&#xA;eXL6L/nK3yLd2Glyx6FYaHJbm4ggZbSDjFqKpFzRfTSnNQF9xirN/wAzvKVzqVvpEeleW4dVXTip&#xA;jVLz9HPAsc9uViiKgDiyIxIBWgSgI5Yqw5vy91ATyWrfl4k0caW7mePzDeos7I1uPtEgkx8XKh+y&#xA;f5dCqy3TvyV8h3WkWTanoklpeyW0QvLNNRvZEik4OXiV1mHIRtO4DDrirJ/Lvkbyz5durq70i1eC&#xA;e8HG4d555gw9R5qBZpHVfjmc/CB1xVPsVdirsVdirsVdirsVdirsVULjT7C55/WLaKb1Aqv6iK/J&#xA;UYsoNQahWNR74KW19vbW9tAkFtEkEEY4xxRqERR4Kq0Awq+UvMH/ADiL+Yd/5j1zU7HzDp9tb6xc&#xA;3Mrxc7lS0E85mEcoWOjCvEkbioxVAXv/ADhz+aN8Ixe+aLC6EVREJpbuTiG68eUZpWnbFXuv5Afl&#xA;brH5beTrzQ9Vu7e8uLnUZL5JbXnwCSQQxBT6ioeVYT2xV6XirsVdirsVdirsVdirsVdirsVdirsV&#xA;dirsVdirsVdirsVdirsVdirsVdirsVdirsVdirHvMuv67pKXU1lpDanHBFHJFHEZOcjSSiNkHpxT&#xA;Gqg8vsnbwyFniqtm/wAOHhcV+q6r9LflDzHqut28kuo6U2lSKsbLA/1rmCwPJWNxa2iVXb+7Z/o7&#xA;zaHwB5i03SL/APMbzbHqeonTYob3U545REs3qNFLK4iAaWH45KcV36nFVLXvJehabpn1u08ww6lO&#xA;yc1t4TZjjspIf/TGkrufsRt07Yq+pf8AnCr/AMlZqv8A23Lj/qDtMVe/4q7FXYq7FXYq7FXYq7FX&#xA;Yq7FXYq7FXYq7FXYq7FXYq7FXYq7FXYq7FXYq7FXYq7FXYqkHmKXznCt1JoUdvcMkMbWsM67NL6g&#xA;EiMfUi/3XUg1ArkPVxeTf+78Lr4l/Yj/AC/LrcmkW763HHFqhX/SkhUJGG60QercbDpUvv1oOmTa&#xA;H56a43lhfzI83f4hjmktxeam1sIJDGTcLLK0SEhJNncBa0264qlfmu08iw21m/lm7ubmVxW8S6Y8&#xA;kJH2Qot4V2P7XqGvhir6w/5wq/8AJWar/wBty4/6g7TFXv8AirsVdirsVdirsVQmo6gLJIWMEtwZ&#xA;pBEFhCkr8LOXbkygKAm5yMpUyjG0r0XzlY6wYDa2l0Ip5ZIBO6R8Fkjj9Uh+LsRVem2V484lyBZz&#xA;xGPMrJPzG8hxNMk+vWNvJbyGGaKeZIZFZZvQNUkKtxEvwcqca132y5qaT8yPy9eV4k8zaUzoglal&#xA;7b04NuG5c6dNz4beIxVP7a5t7q3iubaVJ7adFlgniYOjo45K6MtQysDUEYqqYq7FXlSf85DaC+va&#xA;b5f/AMM6+Nb1axfUrLT2gs1maBI5ZQCpu9naO3YqnXoOppirM4/zA8rJpekajqN4ujx6zaJfWseo&#xA;lbdkidY2KzMSY0dTMisC/wBo0FcVWy/mX+XcSs0nmbS04Sek4N5BUPzMZBHKooytv02J6DFU10vz&#xA;BoOrPMmlala6g9tx+sLazxzGP1KlOYjZuPLiaV64qj8VdirsVdirsVdirsVdirsVdirsVdir5I8z&#xA;/mn/AM412vmXVrbUfy9mutQgvbiO8uQkNJJklZZHFZh9pgT0xVLP+Vuf84uf+W2n/wCAh/6r4q9/&#xA;/IDzF5C1/wAnXl55I0R9A0qPUZIZ7NwoLXAghZpfgeQbo6L17Yq9LxV2KuxV2KuxV2KrJ1ZoJFUV&#xA;ZlIA9yMBSGM/l3oup6Rok9tqMPoTvctIqckeqGNFBqhYdVOUabGYxo97dnmJSsMU1z8tPP1/qMjR&#xA;6noR083895Ak+kRPNHFMyyCItvyPMMzOpSQnfnXpkNCZ+Tvy0NjdXUnmTT9BvvghWzltNNhhcMnN&#xA;WDMwdyqxCJU5MTs1T0xVn8MMUMSQwoscUahI40AVVVRQKoGwAGKrsVdirxjXPy984XX/ADk75e87&#xA;Qafz8sWOnyW91qHrQDhI1tdxhfSLiY/FMgqEpv8APFWc+e/LPmfWZrGbQ7zTrb6vHdRXUOpWKXiz&#xA;JcRgKoYkNGodFZguzUHKoFMVYdp/5R+aopLFdSby3qNuk0T3iNo8CsyiYmRht6YYQyShCkafE3xc&#xA;t6qvU9N0bR9LVk02xt7FXpzW2iSENxrSoQLWnI4qjMVdirsVdirsVdirsVdirE9X8saNqVzIP0tJ&#xA;ayNfxXMiW0wjcOsZi9CoNaOxLU/mzJzZJmEQRQA+bRjhESkQdz9jJbK1NrapAZpbgpX99OwaRqkn&#xA;4iAPGnTMZvSHzF5Yl1We7NprM+mXdxbxwxtbu3OJkk5mVVDruyfB+OZPjHweCut3+ho8IeJxX05f&#xA;pTDy1pGpaVpcdpqOrz61cIApu7hIo2ooCgARqCelSXZmJrvmM3vz71jWbvSvzI84SW9kt8Z7vVIC&#xA;jxrJ6bSyyKkw5JJvGxDDxpiqV+avNeg6zaWsdh5ZtNJuoUEc15C8nJwtCKRp6UIPXkzIzHx2xV9X&#xA;f84Vf+Ss1X/tuXH/AFB2mKvf8VdirsVdirsVdirsVdirsVdirsVdirsVdirsVdirsVdirsVdirsV&#xA;dirsVdirsVY/qvkXy3qszy31uZDJdRXrAOUHrQRmNSONCPhY133y6eeUoxieUeTXDFGMjIc5J7BB&#xA;FbwRwRLxiiVUjWpNFUUAqd+mUtiQ+ZPI2h+YUvFvvVRr23S1lkhKqwSOT1Aykq3xV2J8Nsv/ADEv&#xA;D8P+G7avBjx8f8VUm2k6bHpunQWMc09ysC8fXu5nuJ3PUs8khZiSfoHYAbZQ2viPWPyw/O/T/PPm&#xA;fU9E8uXrQancajEsyj4Xgu3kUOtHXfi/JD2O+KoHzV+Wv57eZTam+8ktA9rGsYltbWKOSQKOKmWT&#xA;k0j0GwHKntir6O/5xS8oeZvKv5d6jp/mLTpdNvZdXmuI4JwAxia2tkDihOxZGH0Yq9nxV2KuxV2K&#xA;uxV2KuxV2KuxV2KuxV2KuxV2KuxV2KuxV2KuxV2KuxV2KuxV2KuxV2KuxVBXuu6JYmQXuoW1qYgG&#xA;lE00cfFW6FuRFAffBxC6YeLHi4bHF3dUbhZvlXVP+cq/zSHmrWdE0TytaamNLu7iAehDdzSelBK0&#xA;YdxE5pXjuaUxVJr3/nMv8zbGb0L3y1p1rPxV/Smju434uAyNxaQGjKag98Ve8fkB+aWsfmT5OvNc&#xA;1W0t7O4ttRksUitefApHBDKGPqM55VmPfFXpeKuxV2KuxV2KuxV2KuxV2KuxV2KuxV2KuxV2KuxV&#xA;2KuxV2KuxV2KuxV2KuxV2KuxV2KsR87f4Ce21FPM5b6u9rFHfilxT0DODGawCv8Ae03U5Dbi83Hv&#xA;H4v9Ph+z7ky8n23liHR0by5ZfUrB6cQbaW1d6DZiJ0jkcUOzGtexybkPgPVofMUn5k+cRoQQztc6&#xA;tHdc3hjAtpHmSc1mZRtGWNR064q15+uvzRjsLS382X3G0lihNtYrdWh5RBf3UjW1s/Ir8H22Xr3r&#xA;ir6a/wCcKv8AyVmq/wDbcuP+oO0xV7/irsVdirsVdirsVSrXTpwk0sXuoyafyvoxbLHMYBczhHKW&#xA;7kU5q1OXCvxFQN+hVSXzRqo0m181ajpOpCTWrLTobmXT7l5Z7W0CCcxzm3iDyIJQrcwg+IINu5VY&#xA;f5O/O23klmbzX5h8vLYwQKXmsDerIs5IUCT6xEkaqzJLx3qfhpXFWUN+dn5VLI0Z8x2vNW4EfvPt&#xA;FzHxHw7nmpG2Kst0nVdP1fTLXVNNnW5sL2JJ7W4SvF45ByVhWh3B74qisVdirsVdirsVdirsVdir&#xA;sVdirsVdirsVdirsVdirD/PHmHyrpdtqT6/pL31rBaRPe/uoJle3eYKi8ZHWoWU13G3XIWOKurje&#xA;JHxuGvVw89uX38060LzFo+rRR/oxZ/q5jDwvJZ3NtEUFFAR5oo0/2INcm5L4A1LSNR1P8yvOUVhq&#xA;cOlyRXGry3Es7TKGtleU3C/uI5mI9INUEbjbFUH5y8kedNPkguNdvbe852yPb3EmoQs5i4CQIqTy&#xA;JN8IelOH+rXFX1F/zhV/5KzVf+25cf8AUHaYq9/xV2KuxV2KuxV2KrZIopOPqIr8WDLyANGHQivc&#xA;Yq16EFZG9NeUoAlNBVgBQBvHFVGPTNNjiSGO0hSKNQscaxqFVR0AAFABirZ07TyKG1iIP+Qv9MVV&#xA;0RI0CRqERRRVUUAHgAMVbxV2KuxV2KuxV2KuxV2KuxV2KuxV2KuxV2KuxV2KsY81+Z9X0aO9ms9C&#xA;fVTa28cyLE7h5Q8ojZAEhlNUqXI32yFniqnH8SXi8PDtV3+jl+lNdDu9eurf1tWsLewZ1RoooLmS&#xA;5b4hVhJzgtuBXbpyybkPz41jSdL1L8yfOEWoao+lRw3eq3CypEsxk9GWV2iAaa3+JwvFRXc7Yql3&#xA;mny55T0ZY4rTzDJq97LbxzgW1rEbZWckGJ5xdOQyAb0jOKvqv/nCr/yVmq/9ty4/6g7TFXv+KuxV&#xA;2KuxV2KuxV2KuxV2KuxV2KuxV2KuxV2KuxV2KuxV2KuxV2KuxV2KuxV2KuxV2Ksa8033ni2jvW8v&#xA;WVveyRwRyWcUwoXlMgWSMsZol2jq46eGR3vyaLyeJW3BX293P9Cb6Lc6xc2CTavYxadeN9q1in+t&#xA;BR7yenCK/IfTkm9+eetQ+V5fzI83jzC1wlul5qktsbaVYmaeOWVo4iWiuP7xgE6bVriqVebNN8i2&#xA;iQP5b1i51CSRIzNbzW3BY2KAyfvyYyx59FEX+yPUqvrD/nCr/wAlZqv/AG3Lj/qDtMVe/wCKuxV2&#xA;KuxV2KuxVhX5mfm95M/Lmyt5/ME0r3F4WFnYWiCW4lCU5MqsyIFXkN2YYq3rf5q6Not21vfaffJw&#xA;059TeUC24qkcLzmAqZxIJiIyoXjTlT4u+KpLd/8AOQHla2ZmGlapPbCw/SYuYFs5FMH6PXUifTFz&#xA;6y0hcKWaMJz25dDiq9Pz/wDJqx3hu7PUrGa0tINRW3ngj9SeznDF7i3EcsgkigEbmR60oKryFCVW&#xA;ceX9bfWLN7l9Ou9N4SemsN6sQd14K4kQwyTIyEPQHl1BGKpnirsVdirsVdirsVdirsVdirsVdirs&#xA;VdirsVdirsVY35o07ztcRXh8u6nFZzNDH9SWdUKLMsoMnMmGY8GiqO5rkaN+TRwT8S79FcvP5fpT&#xA;bRbPULPToYNQv5NSvAAZrqVYUJYgcgogjhTiD0+Gvjkm9+eOuX/l6y/Mjzc+t6aNTga91MW0RaVO&#xA;Nz6svosfSlgPD1Kc9z8NaCuKpV5u1TyddG2h8s6ObCFI0NzczvM07z0IkADTzRCLoV+Hl79sVfWX&#xA;/OFX/krNV/7blx/1B2mKvf8AFXYq7FXYq7FXYqxLXvys8k6/5wsPNms2P17VtMhSCxErsYIxHI8q&#xA;v6NeDOGkO7V7eGKofWvyh8ma1LK+ppd3Sz3D3VxHLdzushkZG9IlmLLCvp/DGpCgEilDiqWy/kF5&#xA;CmjW2nfU5tNjhEEOlPqFybSMLafUQ6Q8+If6v8HLrviqfX35ZeS9Q1y61y+08XOo3lg+lTySMxU2&#xA;sqenIirXivNPhJWm3zNVU70fSIdLtTbxTTXHJgzS3D83PFFjUbBVACIo2A8TuSSqjsVdirsVdirs&#xA;VdirsVdirsVdirsVdirsVdir/9k=</xmpGImg:image>
               </rdf:li>
            </rdf:Alt>
         </xmp:Thumbnails>
         <xmpMM:InstanceID>xmp.iid:af9d3355-2c54-7245-bc78-2ee92ae521f1</xmpMM:InstanceID>
         <xmpMM:DocumentID>xmp.did:af9d3355-2c54-7245-bc78-2ee92ae521f1</xmpMM:DocumentID>
         <xmpMM:OriginalDocumentID>uuid:5D20892493BFDB11914A8590D31508C8</xmpMM:OriginalDocumentID>
         <xmpMM:RenditionClass>default</xmpMM:RenditionClass>
         <xmpMM:DerivedFrom rdf:parseType="Resource">
            <stRef:instanceID>xmp.iid:0aca7392-4d59-1345-ad2d-db094dd65566</stRef:instanceID>
            <stRef:documentID>xmp.did:69e45eea-d801-e14f-af23-c791cf8760eb</stRef:documentID>
            <stRef:originalDocumentID>uuid:5D20892493BFDB11914A8590D31508C8</stRef:originalDocumentID>
            <stRef:renditionClass>default</stRef:renditionClass>
         </xmpMM:DerivedFrom>
         <xmpMM:History>
            <rdf:Seq>
               <rdf:li rdf:parseType="Resource">
                  <stEvt:action>saved</stEvt:action>
                  <stEvt:instanceID>xmp.iid:0180117407206811822A86D5082F1CB1</stEvt:instanceID>
                  <stEvt:when>2016-12-19T13:50:53+06:00</stEvt:when>
                  <stEvt:softwareAgent>Adobe Illustrator CS6 (Macintosh)</stEvt:softwareAgent>
                  <stEvt:changed>/</stEvt:changed>
               </rdf:li>
               <rdf:li rdf:parseType="Resource">
                  <stEvt:action>saved</stEvt:action>
                  <stEvt:instanceID>xmp.iid:af9d3355-2c54-7245-bc78-2ee92ae521f1</stEvt:instanceID>
                  <stEvt:when>2022-03-15T15:41:51+03:00</stEvt:when>
                  <stEvt:softwareAgent>Adobe Illustrator 26.1 (Windows)</stEvt:softwareAgent>
                  <stEvt:changed>/</stEvt:changed>
               </rdf:li>
            </rdf:Seq>
         </xmpMM:History>
         <illustrator:StartupProfile>Print</illustrator:StartupProfile>
         <illustrator:CreatorSubTool>Adobe Illustrator</illustrator:CreatorSubTool>
         <pdf:Producer>Adobe PDF library 15.00</pdf:Producer>
         <pdfx:CreatorVersion>21.0.0</pdfx:CreatorVersion>
         <xmpTPg:NPages>1</xmpTPg:NPages>
         <xmpTPg:HasVisibleTransparency>False</xmpTPg:HasVisibleTransparency>
         <xmpTPg:HasVisibleOverprint>False</xmpTPg:HasVisibleOverprint>
         <xmpTPg:MaxPageSize rdf:parseType="Resource">
            <stDim:w>653.905656</stDim:w>
            <stDim:h>176.701118</stDim:h>
            <stDim:unit>Pixels</stDim:unit>
         </xmpTPg:MaxPageSize>
         <xmpTPg:PlateNames>
            <rdf:Seq>
               <rdf:li>Cyan</rdf:li>
               <rdf:li>Magenta</rdf:li>
               <rdf:li>Yellow</rdf:li>
               <rdf:li>Black</rdf:li>
            </rdf:Seq>
         </xmpTPg:PlateNames>
         <xmpTPg:SwatchGroups>
            <rdf:Seq>
               <rdf:li rdf:parseType="Resource">
                  <xmpG:groupName>Группа образцов по умолчанию</xmpG:groupName>
                  <xmpG:groupType>0</xmpG:groupType>
                  <xmpG:Colorants>
                     <rdf:Seq>
                        <rdf:li rdf:parseType="Resource">
                           <xmpG:swatchName>PANTONE 285 C</xmpG:swatchName>
                           <xmpG:type>SPOT</xmpG:type>
                           <xmpG:tint>100.000000</xmpG:tint>
                           <xmpG:mode>LAB</xmpG:mode>
                           <xmpG:L>45.098000</xmpG:L>
                           <xmpG:A>-5</xmpG:A>
                           <xmpG:B>-59</xmpG:B>
                        </rdf:li>
                        <rdf:li rdf:parseType="Resource">
                           <xmpG:swatchName>PANTONE 7481 C</xmpG:swatchName>
                           <xmpG:type>SPOT</xmpG:type>
                           <xmpG:tint>100.000000</xmpG:tint>
                           <xmpG:mode>LAB</xmpG:mode>
                           <xmpG:L>62.745098</xmpG:L>
                           <xmpG:A>-73</xmpG:A>
                           <xmpG:B>36</xmpG:B>
                        </rdf:li>
                        <rdf:li rdf:parseType="Resource">
                           <xmpG:swatchName>PANTONE 871 C</xmpG:swatchName>
                           <xmpG:type>SPOT</xmpG:type>
                           <xmpG:tint>100.000000</xmpG:tint>
                           <xmpG:mode>LAB</xmpG:mode>
                           <xmpG:L>50.196098</xmpG:L>
                           <xmpG:A>2</xmpG:A>
                           <xmpG:B>24</xmpG:B>
                        </rdf:li>
                        <rdf:li rdf:parseType="Resource">
                           <xmpG:swatchName>PANTONE Red 032 C</xmpG:swatchName>
                           <xmpG:type>SPOT</xmpG:type>
                           <xmpG:tint>100.000000</xmpG:tint>
                           <xmpG:mode>LAB</xmpG:mode>
                           <xmpG:L>55.294102</xmpG:L>
                           <xmpG:A>72</xmpG:A>
                           <xmpG:B>43</xmpG:B>
                        </rdf:li>
                        <rdf:li rdf:parseType="Resource">
                           <xmpG:swatchName>t_blue</xmpG:swatchName>
                           <xmpG:type>PROCESS</xmpG:type>
                           <xmpG:tint>100.000000</xmpG:tint>
                           <xmpG:mode>RGB</xmpG:mode>
                           <xmpG:red>0</xmpG:red>
                           <xmpG:green>114</xmpG:green>
                           <xmpG:blue>255</xmpG:blue>
                        </rdf:li>
                        <rdf:li rdf:parseType="Resource">
                           <xmpG:swatchName>t_green</xmpG:swatchName>
                           <xmpG:type>PROCESS</xmpG:type>
                           <xmpG:tint>100.000000</xmpG:tint>
                           <xmpG:mode>RGB</xmpG:mode>
                           <xmpG:red>15</xmpG:red>
                           <xmpG:green>179</xmpG:green>
                           <xmpG:blue>75</xmpG:blue>
                        </rdf:li>
                        <rdf:li rdf:parseType="Resource">
                           <xmpG:swatchName>t_gold</xmpG:swatchName>
                           <xmpG:type>PROCESS</xmpG:type>
                           <xmpG:tint>100.000000</xmpG:tint>
                           <xmpG:mode>RGB</xmpG:mode>
                           <xmpG:red>175</xmpG:red>
                           <xmpG:green>140</xmpG:green>
                           <xmpG:blue>100</xmpG:blue>
                        </rdf:li>
                        <rdf:li rdf:parseType="Resource">
                           <xmpG:swatchName>t_red</xmpG:swatchName>
                           <xmpG:type>PROCESS</xmpG:type>
                           <xmpG:tint>100.000000</xmpG:tint>
                           <xmpG:mode>RGB</xmpG:mode>
                           <xmpG:red>239</xmpG:red>
                           <xmpG:green>84</xmpG:green>
                           <xmpG:blue>75</xmpG:blue>
                        </rdf:li>
                        <rdf:li rdf:parseType="Resource">
                           <xmpG:swatchName>t_black</xmpG:swatchName>
                           <xmpG:type>PROCESS</xmpG:type>
                           <xmpG:tint>100.000000</xmpG:tint>
                           <xmpG:mode>RGB</xmpG:mode>
                           <xmpG:red>0</xmpG:red>
                           <xmpG:green>0</xmpG:green>
                           <xmpG:blue>0</xmpG:blue>
                        </rdf:li>
                     </rdf:Seq>
                  </xmpG:Colorants>
               </rdf:li>
            </rdf:Seq>
         </xmpTPg:SwatchGroups>
      </rdf:Description>
   </rdf:RDF>
</x:xmpmeta>
                                                                                                    
                                                                                                    
                                                                                                    
                                                                                                    
                                                                                                    
                                                                                                    
                                                                                                    
                                                                                                    
                                                                                                    
                                                                                                    
                                                                                                    
                                                                                                    
                                                                                                    
                                                                                                    
                                                                                                    
                                                                                                    
                                                                                                    
                                                                                                    
                                                                                                    
                                                                                                    
                           
<?xpacket end="w"?>
	</metadata>
<g>
	<g>
		<rect x="0.453" y="0.064" style="fill:none;" width="795.136" height="313.25"/>
		<rect x="78.764" y="78.376" style="fill:none;" width="638.515" height="156.625"/>
	</g>
	<g>
		<rect x="130.363" y="78.507" style="fill:#FFFFFF;" width="52.152" height="156.403"/>
		<polygon style="fill:#FFFFFF;" points="234.673,125.156 188.027,78.504 234.673,78.504 		"/>
		<polygon style="fill:#FFFFFF;" points="78.202,125.225 124.923,78.507 78.202,78.507 		"/>
		<polygon style="fill:#FFFFFF;" points="287.513,105.884 318.875,105.884 318.875,115.001 307.447,115.001 307.447,144.504 
			298.942,144.504 298.942,115.001 287.513,115.001 		"/>
		<polygon style="fill:#FFFFFF;" points="419.533,123.561 410.298,123.561 410.298,144.507 402.023,144.507 402.023,123.561 
			392.789,123.561 392.789,114.997 419.533,114.997 		"/>
		<path style="fill:#FFFFFF;" d="M433.437,115.001v6.759h5.688c6.978,0,11.879,3.993,11.879,11.373
			c0,7.374-4.902,11.37-11.879,11.37H425.16v-29.503H433.437z M433.098,136.845h5.745c2.476,0,3.828-1.52,3.828-3.375
			c0-1.858-1.352-3.381-3.828-3.381h-5.745V136.845z"/>
		<polygon style="fill:#FFFFFF;" points="490.407,115.001 498.684,115.001 498.684,126.096 508.537,115.001 519.461,115.001 
			506.288,129.583 520.532,144.504 509.552,144.504 498.684,133.305 498.684,144.504 490.407,144.504 		"/>
		<path style="fill:#FFFFFF;" d="M552.172,129.749c0,9.013-7.432,15.601-15.933,15.601c-8.504,0-15.936-6.587-15.936-15.601
			c0-9.004,7.432-15.594,15.936-15.594C544.74,114.154,552.172,120.745,552.172,129.749 M543.783,129.749
			c0-4.049-3.436-6.809-7.544-6.809c-4.112,0-7.548,2.76-7.548,6.809c0,4.062,3.436,6.818,7.548,6.818
			C540.347,136.567,543.783,133.811,543.783,129.749"/>
		<path style="fill:#FFFFFF;" d="M572.434,114.997c6.027,0,11.094,2.594,11.094,8.679c0,2.36-0.841,3.487-1.97,4.777
			c1.97,1.464,3.267,3.553,3.267,6.818c0,6.194-5.348,9.235-11.262,9.235h-15.146v-29.509H572.434z M566.244,126.771h6.925
			c1.464,0,2.474-0.846,2.474-2.198c0-1.352-1.01-2.192-2.474-2.192h-6.925V126.771z M566.244,137.129h8.047
			c1.467,0,2.477-0.849,2.477-2.198c0-1.346-1.01-2.192-2.477-2.192h-8.047V137.129z"/>
		<path style="fill:#FFFFFF;" d="M614.292,132.852l2.629,7.209c-2.056,3.035-6.644,5.286-11.842,5.286
			c-8.718,0-16.036-6.356-16.036-15.598c0-9.232,7.318-15.594,16.036-15.594c5.198,0,9.673,2.423,11.614,5.348l-2.459,7.04
			c-1.428-1.858-4.293-3.603-8.411-3.603c-4.964,0-8.392,2.813-8.392,6.809c0,4.002,3.428,6.815,8.392,6.815
			C609.942,136.564,612.694,134.707,614.292,132.852"/>
		<polygon style="fill:#FFFFFF;" points="623.28,115.001 631.557,115.001 631.557,126.096 641.41,115.001 652.334,115.001 
			639.16,129.583 653.405,144.504 642.428,144.504 631.557,133.305 631.557,144.504 623.28,144.504 		"/>
		<path style="fill:#FFFFFF;" d="M691.265,126.377c0-7.156,5.29-11.38,12.165-11.38h13.849v29.509h-8.278v-7.774h-2.718
			l-6.169,7.774h-9.675l6.399-8.055C693.797,135.047,691.265,131.213,691.265,126.377 M709.001,122.996h-5.741
			c-2.477,0-3.834,1.524-3.834,3.381c0,1.854,1.357,3.372,3.834,3.372h5.741V122.996z"/>
		<path style="fill:#FFFFFF;" d="M456.237,126.377c0-7.156,5.29-11.38,12.162-11.38h13.848v29.509h-8.277v-7.774h-2.718
			l-6.172,7.774h-9.672l6.402-8.055C458.766,135.047,456.237,131.213,456.237,126.377 M473.97,122.996h-5.741
			c-2.474,0-3.831,1.524-3.831,3.381c0,1.854,1.356,3.372,3.831,3.372h5.741V122.996z"/>
		<path style="fill:#FFFFFF;" d="M494.585,190.497c0-7.153,5.29-11.374,12.16-11.374h13.852v29.503h-8.277v-7.771h-2.718
			l-6.169,7.771h-9.675l6.398-8.052C497.117,199.17,494.585,195.336,494.585,190.497 M512.321,187.119h-5.741
			c-2.477,0-3.831,1.52-3.831,3.378c0,1.857,1.353,3.375,3.831,3.375h5.741V187.119z"/>
		<polygon style="fill:#FFFFFF;" points="312.739,179.123 312.739,187.796 299.225,187.796 299.225,208.627 290.949,208.627 
			290.949,179.123 		"/>
		<path style="fill:#FFFFFF;" d="M352.143,200.853c4.444-0.109,6.982-0.671,7.321-18.688l0.055-3.044h23.086v29.506h-8.223v-20.833
			h-7.318l-0.111,2.363c-0.621,13.343-4.057,18.695-10.136,18.695c-1.297,0-2.646-0.225-3.267-0.506L352.143,200.853z"/>
		<path style="fill:#FFFFFF;" d="M388.909,132.353h-21.455c0.787,3.156,3.734,5.123,8.172,5.123c3.451,0,6.959-1.305,8.615-3.278
			l2.647,6.185c-2.04,3.035-6.621,4.967-11.89,4.967c-9.063,0-16.045-5.966-16.045-15.541c0-8.445,5.969-15.654,15.429-15.654
			c8.84,0,14.694,7.437,14.694,15.654C389.076,130.764,389.022,131.678,388.909,132.353 M380.789,126.539
			c-0.562-2.866-3.344-4.439-6.495-4.439c-3.211,0-5.941,1.577-6.67,4.443L380.789,126.539z"/>
		<path style="fill:#FFFFFF;" d="M418.86,196.476h-21.454c0.787,3.153,3.734,5.123,8.172,5.123c3.453,0,6.959-1.308,8.615-3.278
			l2.647,6.182c-2.04,3.038-6.622,4.97-11.89,4.97c-9.063,0-16.046-5.969-16.046-15.541c0-8.445,5.969-15.651,15.429-15.651
			c8.84,0,14.694,7.43,14.694,15.651C419.027,194.887,418.973,195.801,418.86,196.476 M410.74,190.662
			c-0.562-2.869-3.344-4.44-6.495-4.44c-3.21,0-5.941,1.574-6.669,4.443L410.74,190.662z"/>
		<path style="fill:#FFFFFF;" d="M490.283,196.476h-21.455c0.787,3.153,3.734,5.123,8.172,5.123c3.453,0,6.959-1.308,8.615-3.278
			l2.647,6.182c-2.04,3.038-6.622,4.97-11.89,4.97c-9.063,0-16.046-5.969-16.046-15.541c0-8.445,5.969-15.651,15.429-15.651
			c8.84,0,14.694,7.43,14.694,15.651C490.45,194.887,490.395,195.801,490.283,196.476 M482.162,190.662
			c-0.562-2.869-3.344-4.44-6.495-4.44c-3.211,0-5.941,1.574-6.669,4.443L482.162,190.662z"/>
		<path style="fill:#FFFFFF;" d="M668.487,114.154c4.616,0,7.599,1.748,8.609,3.884v-3.038h7.996v29.503h-7.996v-3.038
			c-1.01,2.139-3.993,3.881-8.609,3.881c-7.772,0-14.581-6.303-14.581-15.598C653.906,120.461,660.715,114.154,668.487,114.154
			 M669.894,136.567c3.379,0,6.078-1.464,6.921-3.381v-6.865c-0.843-1.917-3.542-3.381-6.921-3.381
			c-4.561,0-7.596,2.875-7.596,6.809C662.298,133.698,665.332,136.567,669.894,136.567"/>
		<path style="fill:#FFFFFF;" d="M331.071,178.018c4.616,0,7.596,1.745,8.612,3.887v-3.041h7.996v29.5h-7.996v-3.038
			c-1.016,2.139-3.996,3.887-8.612,3.887c-7.772,0-14.578-6.31-14.578-15.601C316.493,184.328,323.299,178.018,331.071,178.018
			 M332.481,200.428c3.377,0,6.074-1.461,6.918-3.381v-6.865c-0.845-1.917-3.542-3.381-6.918-3.381
			c-4.561,0-7.599,2.875-7.599,6.812C324.881,197.559,327.919,200.428,332.481,200.428"/>
		<path style="fill:#FFFFFF;" d="M339.7,145.35c-4.616,0-7.316-1.742-8.331-3.884v15.029h-8.273v-41.495h7.995v3.041
			c1.01-2.135,3.993-3.884,8.609-3.884c7.769,0,14.578,6.303,14.578,15.594S347.469,145.35,339.7,145.35 M338.294,122.943
			c-3.378,0-6.08,1.464-6.925,3.378v6.865c0.845,1.917,3.547,3.381,6.925,3.381c4.557,0,7.593-2.872,7.593-6.815
			C345.887,125.812,342.85,122.943,338.294,122.943"/>
		<path style="fill:#FFFFFF;" d="M433.607,220.615v-15.029c1.01,2.138,3.804,3.884,8.242,3.884c7.51,0,14.204-6.306,14.204-15.598
			c0-9.285-6.693-15.594-14.204-15.594c-4.438,0-7.51,1.745-8.526,3.884v-3.038h-7.992v14.748v26.743H433.607z M433.607,190.441
			c0.845-1.917,3.718-3.381,6.836-3.381c4.396,0,7.221,2.875,7.221,6.812c0,3.946-2.825,6.816-7.221,6.816
			c-3.117,0-5.991-1.464-6.836-3.378v-3.437V190.441z"/>
	</g>
</g>
</svg>
