<?xml version="1.0" encoding="utf-8"?>
<!-- Generator: Adobe Illustrator 26.1.0, SVG Export Plug-In . SVG Version: 6.00 Build 0)  -->
<!DOCTYPE svg PUBLIC "-//W3C//DTD SVG 1.0//EN" "http://www.w3.org/TR/2001/REC-SVG-20010904/DTD/svg10.dtd" [
	<!ENTITY ns_flows "http://ns.adobe.com/Flows/1.0/">
	<!ENTITY ns_extend "http://ns.adobe.com/Extensibility/1.0/">
	<!ENTITY ns_ai "http://ns.adobe.com/AdobeIllustrator/10.0/">
	<!ENTITY ns_graphs "http://ns.adobe.com/Graphs/1.0/">
	<!ENTITY ns_vars "http://ns.adobe.com/Variables/1.0/">
	<!ENTITY ns_imrep "http://ns.adobe.com/ImageReplacement/1.0/">
	<!ENTITY ns_sfw "http://ns.adobe.com/SaveForWeb/1.0/">
	<!ENTITY ns_custom "http://ns.adobe.com/GenericCustomNamespace/1.0/">
	<!ENTITY ns_adobe_xpath "http://ns.adobe.com/XPath/1.0/">
]>
<svg version="1.0" id="Layer_1" xmlns:x="&ns_extend;" xmlns:i="&ns_ai;" xmlns:graph="&ns_graphs;"
	 xmlns="http://www.w3.org/2000/svg" xmlns:xlink="http://www.w3.org/1999/xlink" xmlns:a="http://ns.adobe.com/AdobeSVGViewerExtensions/3.0/"
	 x="0px" y="0px" viewBox="0 0 653.906 313.661" style="enable-background:new 0 0 653.906 313.661;" xml:space="preserve">
<metadata><?xpacket begin="﻿" id="W5M0MpCehiHzreSzNTczkc9d"?>
<x:xmpmeta xmlns:x="adobe:ns:meta/" x:xmptk="Adobe XMP Core 7.1-c000 79.b0f8be9, 2021/12/08-19:11:22        ">
   <rdf:RDF xmlns:rdf="http://www.w3.org/1999/02/22-rdf-syntax-ns#">
      <rdf:Description rdf:about=""
            xmlns:dc="http://purl.org/dc/elements/1.1/"
            xmlns:xmp="http://ns.adobe.com/xap/1.0/"
            xmlns:xmpGImg="http://ns.adobe.com/xap/1.0/g/img/"
            xmlns:xmpMM="http://ns.adobe.com/xap/1.0/mm/"
            xmlns:stRef="http://ns.adobe.com/xap/1.0/sType/ResourceRef#"
            xmlns:stEvt="http://ns.adobe.com/xap/1.0/sType/ResourceEvent#"
            xmlns:illustrator="http://ns.adobe.com/illustrator/1.0/"
            xmlns:pdf="http://ns.adobe.com/pdf/1.3/"
            xmlns:pdfx="http://ns.adobe.com/pdfx/1.3/"
            xmlns:xmpTPg="http://ns.adobe.com/xap/1.0/t/pg/"
            xmlns:stDim="http://ns.adobe.com/xap/1.0/sType/Dimensions#"
            xmlns:xmpG="http://ns.adobe.com/xap/1.0/g/">
         <dc:format>image/svg+xml</dc:format>
         <dc:title>
            <rdf:Alt>
               <rdf:li xml:lang="x-default">T_logo_all_RGB_edit</rdf:li>
            </rdf:Alt>
         </dc:title>
         <xmp:MetadataDate>2022-03-15T15:41:51+03:00</xmp:MetadataDate>
         <xmp:ModifyDate>2022-03-15T15:41:51+03:00</xmp:ModifyDate>
         <xmp:CreateDate>2022-03-15T15:41:51+03:00</xmp:CreateDate>
         <xmp:CreatorTool>Adobe Illustrator 26.1 (Windows)</xmp:CreatorTool>
         <xmp:Thumbnails>
            <rdf:Alt>
               <rdf:li rdf:parseType="Resource">
                  <xmpGImg:width>256</xmpGImg:width>
                  <xmpGImg:height>152</xmpGImg:height>
                  <xmpGImg:format>JPEG</xmpGImg:format>
                  <xmpGImg:image>/9j/4AAQSkZJRgABAgEASABIAAD/7QAsUGhvdG9zaG9wIDMuMAA4QklNA+0AAAAAABAASAAAAAEA&#xA;AQBIAAAAAQAB/+4ADkFkb2JlAGTAAAAAAf/bAIQABgQEBAUEBgUFBgkGBQYJCwgGBggLDAoKCwoK&#xA;DBAMDAwMDAwQDA4PEA8ODBMTFBQTExwbGxscHx8fHx8fHx8fHwEHBwcNDA0YEBAYGhURFRofHx8f&#xA;Hx8fHx8fHx8fHx8fHx8fHx8fHx8fHx8fHx8fHx8fHx8fHx8fHx8fHx8fHx8f/8AAEQgAmAEAAwER&#xA;AAIRAQMRAf/EAaIAAAAHAQEBAQEAAAAAAAAAAAQFAwIGAQAHCAkKCwEAAgIDAQEBAQEAAAAAAAAA&#xA;AQACAwQFBgcICQoLEAACAQMDAgQCBgcDBAIGAnMBAgMRBAAFIRIxQVEGE2EicYEUMpGhBxWxQiPB&#xA;UtHhMxZi8CRygvElQzRTkqKyY3PCNUQnk6OzNhdUZHTD0uIIJoMJChgZhJRFRqS0VtNVKBry4/PE&#xA;1OT0ZXWFlaW1xdXl9WZ2hpamtsbW5vY3R1dnd4eXp7fH1+f3OEhYaHiImKi4yNjo+Ck5SVlpeYmZ&#xA;qbnJ2en5KjpKWmp6ipqqusra6voRAAICAQIDBQUEBQYECAMDbQEAAhEDBCESMUEFURNhIgZxgZEy&#xA;obHwFMHR4SNCFVJicvEzJDRDghaSUyWiY7LCB3PSNeJEgxdUkwgJChgZJjZFGidkdFU38qOzwygp&#xA;0+PzhJSktMTU5PRldYWVpbXF1eX1RlZmdoaWprbG1ub2R1dnd4eXp7fH1+f3OEhYaHiImKi4yNjo&#xA;+DlJWWl5iZmpucnZ6fkqOkpaanqKmqq6ytrq+v/aAAwDAQACEQMRAD8A9U4q7FXYq7FXYq7FXYq7&#xA;FXYq7FXYq7FXYq7FXmdr5Hl1rzbqd5egx6XHdyexmIY/Cv8Ak+J+ge2vGn45knlbmnNwwAHOkg/M&#xA;WGKDzTPDCgjijjhVEUUAAjUAADKdSKm24DcU48geXrDXPL2pWl2tCJlMMw+3G/DqP4jvlunxicSC&#xA;158hjIEJv+Xmg3+iaxq1neJQhIjHIPsSJyejKct02MwkQWvPMSAIZ5mY4rsVeCf85XeT/MHm+18o&#xA;aDoNsbq/ur+ag6JGgiHKWVv2UXuf44qxH82/ye8v/lr/AM493FnZgXWsXV7ZtquqstHmcMfgT+WJ&#xA;f2V+k74q8H/JiOOX82PKUcih431S2V0YAqymQAgg9QcVe0/nD/zjlJ5Y826d5u8o25fy49/byajp&#xA;0YJayYzLV0HeA/8ACf6vRV9cYq7FXYq7FXYq7FXYq7FXYq7FXYq7FXYq7FXYq7FXYq7FWL61+XPl&#xA;7VliSf1YkiaV0SEoq1mZWaoKMP2Ao8BtkYxA5JlInmnumaRpulwvBp8C28UkjTSKtd3YAFtyetBk&#xA;kIvFXYq7FXi/5l/8pfdf6kX/ACbXNVqvrLsdP9AZT+UH/HN1D/jMn/EcyNFyLRquYZ/ma4rsVdir&#xA;sVeK/wDOXv8A5Ju5/wCY60/4kcVfJX5Kf+Tc8of9tW1/5OjFX6P4q7FXYq7FXYq7FXYq7FXYq7FX&#xA;Yq7FXYqw+6/OH8rLS6mtbrzXpkNzbu0U8L3MYZHQlWVgTsQRQ4qpf8rr/KP/AKm/Sv8ApKi/rirI&#xA;fL3mjy75ksnvtA1K31SzjkMElxayLKiyqqsULLXcK6mnviqaYq7FXYq7FXYq7FXYq7FXi/5l/wDK&#xA;X3X+pF/ybXNVqvrLsdP9AZT+UH/HN1D/AIzJ/wARzI0XItGq5hn+ZriuxV2KuxV4r/zl7/5Ju5/5&#xA;jrT/AIkcVfJX5Kf+Tc8of9tW1/5OjFX6P4q7FXYq7FXYq7FXYq7FXYq7FXYqgNb1mHSLFr2eGWWC&#xA;P+8MIUlR0qeTJ322yGSfCLLOEOI0i4JWliDtE8LEkGOTjyFCR+yWG9K9ckCxIfmn57iEv5jeYYmk&#xA;WESaxeKZZKhEDXTjk3EMaDqaDChb5w8l3Plc6ctzqFnevqdrDfwJaGclbe4hjmhkf1oYaeostABU&#xA;1Vq02qq+s/8AnCr/AMlZqv8A23Lj/qDtMVe/4q7FXYq7FXYq7FXYq7FWMa5+Xui6zqUmoXU1yk0g&#xA;UMsTRhfhUKKBkY9vHMfJpoyNm26GeURQR/lvyvp/l+CaGzklkWdg7mYqxBAptxVMnixCHJjkyGfN&#xA;OMta3Yq7FXYqxf8AMf8ALzRfP/ll/LuszXNvZSSxzmSzaNJeURqorIkq033+HFXnnlf/AJxL/Lny&#xA;35i03X7HUdYkvNLuI7q3jnmtWiZ4m5KHC2yMV23owxV7XirsVdirsVdirsVdirsVdirsVdiqhfWN&#xA;rfWslpdxiW3lAEkZJAIBr2oeowSiCKKQSDYV8KH5l/mF/wAp95l/7at9/wBRL4qlura3quryW0mo&#xA;3BuHs7aGxtiwUcLe2QRwxjiBsiCm++Kvsf8A5wq/8lZqv/bcuP8AqDtMVe/4q7FXYq7FXYq7FXYq&#xA;7FXYq7FXYq7FXYq7FXYq7FXYq7FXYq7FXYq7FXYq7FXYq7FXYqhLjV9JtmlW4vYIWgCmdZJUUoHI&#xA;Cl6kca1FK4OIXSaNWstNe0O8n+r2mo21xcUJ9GKaN3opo3wqSdu+FD5O17/nJb8z4vMvmCx0rypo&#xA;1/aaPeXEMs66fdzMkcczxo87Rz8QW49aAE4qgv8AoZj85Ov+B9IpSv8Axy77oP8Ao4xV7z/zjn+Z&#xA;Gr/mB5IvtZ1WzsrG4t9Tls0i06J4YiiW8EgZlkklPKspFa9KYq9TxV2KuxV2KuxV2Koe+1GzsUje&#xA;6k9MTSCKKisxZyCQoCgnopyMpAc0xiTyQVj5o0G/liitLoSvOzpFRHAZo15uASoFQprkY5YnkWUs&#xA;chzTOOaKUExurhSVYqQaMOoNO+WMF2KuxV2KuxVgtv8Anf8AldcS20MGtepLe28t7aRrbXZaW3gE&#xA;hllQel8Sr9XkqR/KcVZdpusaZqVjZX1lcJNa6jAl1YyD4TLDIgkR1VqNQqwPTFUZirsVdirsVdir&#xA;sVdirsVdirsVdirsVY35nuPJ3pX8eu8vTWK3N78FyAY1lPoUMQ3/AHrn7Pfr02gCOLzZEGvJX8px&#xA;+VJNPSfy/Cv1aJnjScxyByWPNqPOPUZSX61I8MmxfAmvWfmO486efzo7RiBbi+XV/Ult4z9UN9yN&#xA;BOysR6qJum9aDvuqoebn/Mu1srZvMErQW4JWDg9sjMTuai3Id/s9Wrir6g/5wq/8lZqv/bcuP+oO&#xA;0xV7/irsVdirsVdirsVUrqNXgeqhmVWKbVIJUjb3oaYCNkhiP5XWE0GgSrd27RSpePJEJUKsKwov&#xA;JeQr0qK5jaSNR372/UyuW3cwrWfy/wBVm1K/mXyFbXkU7S3Hw6zLbRzO73ZIZEpR3N1y3BUctmHE&#xA;AZTjtaH+WgutZ0/9I+RDp1gxYzakNfvZpYET1GiUQGQNVvRgFAfhDEdiMVZefyQ/LQiMHS5v3Sok&#xA;Z+vX1QsYjCivr70ECdfDFWY6Zptnpem2mm2SGOysYY7a1jLNIVihQIil3LO1FUbsST3xVE4q8H8y&#xA;eXL6L/nK3yLd2Glyx6FYaHJbm4ggZbSDjFqKpFzRfTSnNQF9xirN/wAzvKVzqVvpEeleW4dVXTip&#xA;jVLz9HPAsc9uViiKgDiyIxIBWgSgI5Yqw5vy91ATyWrfl4k0caW7mePzDeos7I1uPtEgkx8XKh+y&#xA;f5dCqy3TvyV8h3WkWTanoklpeyW0QvLNNRvZEik4OXiV1mHIRtO4DDrirJ/Lvkbyz5durq70i1eC&#xA;e8HG4d555gw9R5qBZpHVfjmc/CB1xVPsVdirsVdirsVdirsVdirsVULjT7C55/WLaKb1Aqv6iK/J&#xA;UYsoNQahWNR74KW19vbW9tAkFtEkEEY4xxRqERR4Kq0Awq+UvMH/ADiL+Yd/5j1zU7HzDp9tb6xc&#xA;3Mrxc7lS0E85mEcoWOjCvEkbioxVAXv/ADhz+aN8Ixe+aLC6EVREJpbuTiG68eUZpWnbFXuv5Afl&#xA;brH5beTrzQ9Vu7e8uLnUZL5JbXnwCSQQxBT6ioeVYT2xV6XirsVdirsVdirsVdirsVdirsVdirsV&#xA;dirsVdirsVdirsVdirsVdirsVdirsVdirsVdirHvMuv67pKXU1lpDanHBFHJFHEZOcjSSiNkHpxT&#xA;Gqg8vsnbwyFniqtm/wAOHhcV+q6r9LflDzHqut28kuo6U2lSKsbLA/1rmCwPJWNxa2iVXb+7Z/o7&#xA;zaHwB5i03SL/APMbzbHqeonTYob3U545REs3qNFLK4iAaWH45KcV36nFVLXvJehabpn1u08ww6lO&#xA;yc1t4TZjjspIf/TGkrufsRt07Yq+pf8AnCr/AMlZqv8A23Lj/qDtMVe/4q7FXYq7FXYq7FXYq7FX&#xA;Yq7FXYq7FXYq7FXYq7FXYq7FXYq7FXYq7FXYq7FXYq7FXYqkHmKXznCt1JoUdvcMkMbWsM67NL6g&#xA;EiMfUi/3XUg1ArkPVxeTf+78Lr4l/Yj/AC/LrcmkW763HHFqhX/SkhUJGG60QercbDpUvv1oOmTa&#xA;H56a43lhfzI83f4hjmktxeam1sIJDGTcLLK0SEhJNncBa0264qlfmu08iw21m/lm7ubmVxW8S6Y8&#xA;kJH2Qot4V2P7XqGvhir6w/5wq/8AJWar/wBty4/6g7TFXv8AirsVdirsVdirsVQmo6gLJIWMEtwZ&#xA;pBEFhCkr8LOXbkygKAm5yMpUyjG0r0XzlY6wYDa2l0Ip5ZIBO6R8Fkjj9Uh+LsRVem2V484lyBZz&#xA;xGPMrJPzG8hxNMk+vWNvJbyGGaKeZIZFZZvQNUkKtxEvwcqca132y5qaT8yPy9eV4k8zaUzoglal&#xA;7b04NuG5c6dNz4beIxVP7a5t7q3iubaVJ7adFlgniYOjo45K6MtQysDUEYqqYq7FXlSf85DaC+va&#xA;b5f/AMM6+Nb1axfUrLT2gs1maBI5ZQCpu9naO3YqnXoOppirM4/zA8rJpekajqN4ujx6zaJfWseo&#xA;lbdkidY2KzMSY0dTMisC/wBo0FcVWy/mX+XcSs0nmbS04Sek4N5BUPzMZBHKooytv02J6DFU10vz&#xA;BoOrPMmlala6g9tx+sLazxzGP1KlOYjZuPLiaV64qj8VdirsVdirsVdirsVdirsVdirsVdir5I8z&#xA;/mn/AM412vmXVrbUfy9mutQgvbiO8uQkNJJklZZHFZh9pgT0xVLP+Vuf84uf+W2n/wCAh/6r4q9/&#xA;/IDzF5C1/wAnXl55I0R9A0qPUZIZ7NwoLXAghZpfgeQbo6L17Yq9LxV2KuxV2KuxV2KrJ1ZoJFUV&#xA;ZlIA9yMBSGM/l3oup6Rok9tqMPoTvctIqckeqGNFBqhYdVOUabGYxo97dnmJSsMU1z8tPP1/qMjR&#xA;6noR083895Ak+kRPNHFMyyCItvyPMMzOpSQnfnXpkNCZ+Tvy0NjdXUnmTT9BvvghWzltNNhhcMnN&#xA;WDMwdyqxCJU5MTs1T0xVn8MMUMSQwoscUahI40AVVVRQKoGwAGKrsVdirxjXPy984XX/ADk75e87&#xA;Qafz8sWOnyW91qHrQDhI1tdxhfSLiY/FMgqEpv8APFWc+e/LPmfWZrGbQ7zTrb6vHdRXUOpWKXiz&#xA;JcRgKoYkNGodFZguzUHKoFMVYdp/5R+aopLFdSby3qNuk0T3iNo8CsyiYmRht6YYQyShCkafE3xc&#xA;t6qvU9N0bR9LVk02xt7FXpzW2iSENxrSoQLWnI4qjMVdirsVdirsVdirsVdirE9X8saNqVzIP0tJ&#xA;ayNfxXMiW0wjcOsZi9CoNaOxLU/mzJzZJmEQRQA+bRjhESkQdz9jJbK1NrapAZpbgpX99OwaRqkn&#xA;4iAPGnTMZvSHzF5Yl1We7NprM+mXdxbxwxtbu3OJkk5mVVDruyfB+OZPjHweCut3+ho8IeJxX05f&#xA;pTDy1pGpaVpcdpqOrz61cIApu7hIo2ooCgARqCelSXZmJrvmM3vz71jWbvSvzI84SW9kt8Z7vVIC&#xA;jxrJ6bSyyKkw5JJvGxDDxpiqV+avNeg6zaWsdh5ZtNJuoUEc15C8nJwtCKRp6UIPXkzIzHx2xV9X&#xA;f84Vf+Ss1X/tuXH/AFB2mKvf8VdirsVdirsVdirsVdirsVdirsVdirsVdirsVdirsVdirsVdirsV&#xA;dirsVdirsVY/qvkXy3qszy31uZDJdRXrAOUHrQRmNSONCPhY133y6eeUoxieUeTXDFGMjIc5J7BB&#xA;FbwRwRLxiiVUjWpNFUUAqd+mUtiQ+ZPI2h+YUvFvvVRr23S1lkhKqwSOT1Aykq3xV2J8Nsv/ADEv&#xA;D8P+G7avBjx8f8VUm2k6bHpunQWMc09ysC8fXu5nuJ3PUs8khZiSfoHYAbZQ2viPWPyw/O/T/PPm&#xA;fU9E8uXrQancajEsyj4Xgu3kUOtHXfi/JD2O+KoHzV+Wv57eZTam+8ktA9rGsYltbWKOSQKOKmWT&#xA;k0j0GwHKntir6O/5xS8oeZvKv5d6jp/mLTpdNvZdXmuI4JwAxia2tkDihOxZGH0Yq9nxV2KuxV2K&#xA;uxV2KuxV2KuxV2KuxV2KuxV2KuxV2KuxV2KuxV2KuxV2KuxV2KuxV2KuxVBXuu6JYmQXuoW1qYgG&#xA;lE00cfFW6FuRFAffBxC6YeLHi4bHF3dUbhZvlXVP+cq/zSHmrWdE0TytaamNLu7iAehDdzSelBK0&#xA;YdxE5pXjuaUxVJr3/nMv8zbGb0L3y1p1rPxV/Smju434uAyNxaQGjKag98Ve8fkB+aWsfmT5OvNc&#xA;1W0t7O4ttRksUitefApHBDKGPqM55VmPfFXpeKuxV2KuxV2KuxV2KuxV2KuxV2KuxV2KuxV2KuxV&#xA;2KuxV2KuxV2KuxV2KuxV2KuxV2KsR87f4Ce21FPM5b6u9rFHfilxT0DODGawCv8Ae03U5Dbi83Hv&#xA;H4v9Ph+z7ky8n23liHR0by5ZfUrB6cQbaW1d6DZiJ0jkcUOzGtexybkPgPVofMUn5k+cRoQQztc6&#xA;tHdc3hjAtpHmSc1mZRtGWNR064q15+uvzRjsLS382X3G0lihNtYrdWh5RBf3UjW1s/Ir8H22Xr3r&#xA;ir6a/wCcKv8AyVmq/wDbcuP+oO0xV7/irsVdirsVdirsVSrXTpwk0sXuoyafyvoxbLHMYBczhHKW&#xA;7kU5q1OXCvxFQN+hVSXzRqo0m181ajpOpCTWrLTobmXT7l5Z7W0CCcxzm3iDyIJQrcwg+IINu5VY&#xA;f5O/O23klmbzX5h8vLYwQKXmsDerIs5IUCT6xEkaqzJLx3qfhpXFWUN+dn5VLI0Z8x2vNW4EfvPt&#xA;FzHxHw7nmpG2Kst0nVdP1fTLXVNNnW5sL2JJ7W4SvF45ByVhWh3B74qisVdirsVdirsVdirsVdir&#xA;sVdirsVdirsVdirsVdirD/PHmHyrpdtqT6/pL31rBaRPe/uoJle3eYKi8ZHWoWU13G3XIWOKurje&#xA;JHxuGvVw89uX38060LzFo+rRR/oxZ/q5jDwvJZ3NtEUFFAR5oo0/2INcm5L4A1LSNR1P8yvOUVhq&#xA;cOlyRXGry3Es7TKGtleU3C/uI5mI9INUEbjbFUH5y8kedNPkguNdvbe852yPb3EmoQs5i4CQIqTy&#xA;JN8IelOH+rXFX1F/zhV/5KzVf+25cf8AUHaYq9/xV2KuxV2KuxV2KrZIopOPqIr8WDLyANGHQivc&#xA;Yq16EFZG9NeUoAlNBVgBQBvHFVGPTNNjiSGO0hSKNQscaxqFVR0AAFABirZ07TyKG1iIP+Qv9MVV&#xA;0RI0CRqERRRVUUAHgAMVbxV2KuxV2KuxV2KuxV2KuxV2KuxV2KuxV2KuxV2KsY81+Z9X0aO9ms9C&#xA;fVTa28cyLE7h5Q8ojZAEhlNUqXI32yFniqnH8SXi8PDtV3+jl+lNdDu9eurf1tWsLewZ1RoooLmS&#xA;5b4hVhJzgtuBXbpyybkPz41jSdL1L8yfOEWoao+lRw3eq3CypEsxk9GWV2iAaa3+JwvFRXc7Yql3&#xA;mny55T0ZY4rTzDJq97LbxzgW1rEbZWckGJ5xdOQyAb0jOKvqv/nCr/yVmq/9ty4/6g7TFXv+KuxV&#xA;2KuxV2KuxV2KuxV2KuxV2KuxV2KuxV2KuxV2KuxV2KuxV2KuxV2KuxV2KuxV2Ksa8033ni2jvW8v&#xA;WVveyRwRyWcUwoXlMgWSMsZol2jq46eGR3vyaLyeJW3BX293P9Cb6Lc6xc2CTavYxadeN9q1in+t&#xA;BR7yenCK/IfTkm9+eetQ+V5fzI83jzC1wlul5qktsbaVYmaeOWVo4iWiuP7xgE6bVriqVebNN8i2&#xA;iQP5b1i51CSRIzNbzW3BY2KAyfvyYyx59FEX+yPUqvrD/nCr/wAlZqv/AG3Lj/qDtMVe/wCKuxV2&#xA;KuxV2KuxVhX5mfm95M/Lmyt5/ME0r3F4WFnYWiCW4lCU5MqsyIFXkN2YYq3rf5q6Not21vfaffJw&#xA;059TeUC24qkcLzmAqZxIJiIyoXjTlT4u+KpLd/8AOQHla2ZmGlapPbCw/SYuYFs5FMH6PXUifTFz&#xA;6y0hcKWaMJz25dDiq9Pz/wDJqx3hu7PUrGa0tINRW3ngj9SeznDF7i3EcsgkigEbmR60oKryFCVW&#xA;ceX9bfWLN7l9Ou9N4SemsN6sQd14K4kQwyTIyEPQHl1BGKpnirsVdirsVdirsVdirsVdirsVdirs&#xA;VdirsVdirsVY35o07ztcRXh8u6nFZzNDH9SWdUKLMsoMnMmGY8GiqO5rkaN+TRwT8S79FcvP5fpT&#xA;bRbPULPToYNQv5NSvAAZrqVYUJYgcgogjhTiD0+Gvjkm9+eOuX/l6y/Mjzc+t6aNTga91MW0RaVO&#xA;Nz6svosfSlgPD1Kc9z8NaCuKpV5u1TyddG2h8s6ObCFI0NzczvM07z0IkADTzRCLoV+Hl79sVfWX&#xA;/OFX/krNV/7blx/1B2mKvf8AFXYq7FXYq7FXYqxLXvys8k6/5wsPNms2P17VtMhSCxErsYIxHI8q&#xA;v6NeDOGkO7V7eGKofWvyh8ma1LK+ppd3Sz3D3VxHLdzushkZG9IlmLLCvp/DGpCgEilDiqWy/kF5&#xA;CmjW2nfU5tNjhEEOlPqFybSMLafUQ6Q8+If6v8HLrviqfX35ZeS9Q1y61y+08XOo3lg+lTySMxU2&#xA;sqenIirXivNPhJWm3zNVU70fSIdLtTbxTTXHJgzS3D83PFFjUbBVACIo2A8TuSSqjsVdirsVdirs&#xA;VdirsVdirsVdirsVdirsVdir/9k=</xmpGImg:image>
               </rdf:li>
            </rdf:Alt>
         </xmp:Thumbnails>
         <xmpMM:InstanceID>xmp.iid:af9d3355-2c54-7245-bc78-2ee92ae521f1</xmpMM:InstanceID>
         <xmpMM:DocumentID>xmp.did:af9d3355-2c54-7245-bc78-2ee92ae521f1</xmpMM:DocumentID>
         <xmpMM:OriginalDocumentID>uuid:5D20892493BFDB11914A8590D31508C8</xmpMM:OriginalDocumentID>
         <xmpMM:RenditionClass>default</xmpMM:RenditionClass>
         <xmpMM:DerivedFrom rdf:parseType="Resource">
            <stRef:instanceID>xmp.iid:0aca7392-4d59-1345-ad2d-db094dd65566</stRef:instanceID>
            <stRef:documentID>xmp.did:69e45eea-d801-e14f-af23-c791cf8760eb</stRef:documentID>
            <stRef:originalDocumentID>uuid:5D20892493BFDB11914A8590D31508C8</stRef:originalDocumentID>
            <stRef:renditionClass>default</stRef:renditionClass>
         </xmpMM:DerivedFrom>
         <xmpMM:History>
            <rdf:Seq>
               <rdf:li rdf:parseType="Resource">
                  <stEvt:action>saved</stEvt:action>
                  <stEvt:instanceID>xmp.iid:0180117407206811822A86D5082F1CB1</stEvt:instanceID>
                  <stEvt:when>2016-12-19T13:50:53+06:00</stEvt:when>
                  <stEvt:softwareAgent>Adobe Illustrator CS6 (Macintosh)</stEvt:softwareAgent>
                  <stEvt:changed>/</stEvt:changed>
               </rdf:li>
               <rdf:li rdf:parseType="Resource">
                  <stEvt:action>saved</stEvt:action>
                  <stEvt:instanceID>xmp.iid:af9d3355-2c54-7245-bc78-2ee92ae521f1</stEvt:instanceID>
                  <stEvt:when>2022-03-15T15:41:51+03:00</stEvt:when>
                  <stEvt:softwareAgent>Adobe Illustrator 26.1 (Windows)</stEvt:softwareAgent>
                  <stEvt:changed>/</stEvt:changed>
               </rdf:li>
            </rdf:Seq>
         </xmpMM:History>
         <illustrator:StartupProfile>Print</illustrator:StartupProfile>
         <illustrator:CreatorSubTool>Adobe Illustrator</illustrator:CreatorSubTool>
         <pdf:Producer>Adobe PDF library 15.00</pdf:Producer>
         <pdfx:CreatorVersion>21.0.0</pdfx:CreatorVersion>
         <xmpTPg:NPages>1</xmpTPg:NPages>
         <xmpTPg:HasVisibleTransparency>False</xmpTPg:HasVisibleTransparency>
         <xmpTPg:HasVisibleOverprint>False</xmpTPg:HasVisibleOverprint>
         <xmpTPg:MaxPageSize rdf:parseType="Resource">
            <stDim:w>653.905656</stDim:w>
            <stDim:h>176.701118</stDim:h>
            <stDim:unit>Pixels</stDim:unit>
         </xmpTPg:MaxPageSize>
         <xmpTPg:PlateNames>
            <rdf:Seq>
               <rdf:li>Cyan</rdf:li>
               <rdf:li>Magenta</rdf:li>
               <rdf:li>Yellow</rdf:li>
               <rdf:li>Black</rdf:li>
            </rdf:Seq>
         </xmpTPg:PlateNames>
         <xmpTPg:SwatchGroups>
            <rdf:Seq>
               <rdf:li rdf:parseType="Resource">
                  <xmpG:groupName>Группа образцов по умолчанию</xmpG:groupName>
                  <xmpG:groupType>0</xmpG:groupType>
                  <xmpG:Colorants>
                     <rdf:Seq>
                        <rdf:li rdf:parseType="Resource">
                           <xmpG:swatchName>PANTONE 285 C</xmpG:swatchName>
                           <xmpG:type>SPOT</xmpG:type>
                           <xmpG:tint>100.000000</xmpG:tint>
                           <xmpG:mode>LAB</xmpG:mode>
                           <xmpG:L>45.098000</xmpG:L>
                           <xmpG:A>-5</xmpG:A>
                           <xmpG:B>-59</xmpG:B>
                        </rdf:li>
                        <rdf:li rdf:parseType="Resource">
                           <xmpG:swatchName>PANTONE 7481 C</xmpG:swatchName>
                           <xmpG:type>SPOT</xmpG:type>
                           <xmpG:tint>100.000000</xmpG:tint>
                           <xmpG:mode>LAB</xmpG:mode>
                           <xmpG:L>62.745098</xmpG:L>
                           <xmpG:A>-73</xmpG:A>
                           <xmpG:B>36</xmpG:B>
                        </rdf:li>
                        <rdf:li rdf:parseType="Resource">
                           <xmpG:swatchName>PANTONE 871 C</xmpG:swatchName>
                           <xmpG:type>SPOT</xmpG:type>
                           <xmpG:tint>100.000000</xmpG:tint>
                           <xmpG:mode>LAB</xmpG:mode>
                           <xmpG:L>50.196098</xmpG:L>
                           <xmpG:A>2</xmpG:A>
                           <xmpG:B>24</xmpG:B>
                        </rdf:li>
                        <rdf:li rdf:parseType="Resource">
                           <xmpG:swatchName>PANTONE Red 032 C</xmpG:swatchName>
                           <xmpG:type>SPOT</xmpG:type>
                           <xmpG:tint>100.000000</xmpG:tint>
                           <xmpG:mode>LAB</xmpG:mode>
                           <xmpG:L>55.294102</xmpG:L>
                           <xmpG:A>72</xmpG:A>
                           <xmpG:B>43</xmpG:B>
                        </rdf:li>
                        <rdf:li rdf:parseType="Resource">
                           <xmpG:swatchName>t_blue</xmpG:swatchName>
                           <xmpG:type>PROCESS</xmpG:type>
                           <xmpG:tint>100.000000</xmpG:tint>
                           <xmpG:mode>RGB</xmpG:mode>
                           <xmpG:red>0</xmpG:red>
                           <xmpG:green>114</xmpG:green>
                           <xmpG:blue>255</xmpG:blue>
                        </rdf:li>
                        <rdf:li rdf:parseType="Resource">
                           <xmpG:swatchName>t_green</xmpG:swatchName>
                           <xmpG:type>PROCESS</xmpG:type>
                           <xmpG:tint>100.000000</xmpG:tint>
                           <xmpG:mode>RGB</xmpG:mode>
                           <xmpG:red>15</xmpG:red>
                           <xmpG:green>179</xmpG:green>
                           <xmpG:blue>75</xmpG:blue>
                        </rdf:li>
                        <rdf:li rdf:parseType="Resource">
                           <xmpG:swatchName>t_gold</xmpG:swatchName>
                           <xmpG:type>PROCESS</xmpG:type>
                           <xmpG:tint>100.000000</xmpG:tint>
                           <xmpG:mode>RGB</xmpG:mode>
                           <xmpG:red>175</xmpG:red>
                           <xmpG:green>140</xmpG:green>
                           <xmpG:blue>100</xmpG:blue>
                        </rdf:li>
                        <rdf:li rdf:parseType="Resource">
                           <xmpG:swatchName>t_red</xmpG:swatchName>
                           <xmpG:type>PROCESS</xmpG:type>
                           <xmpG:tint>100.000000</xmpG:tint>
                           <xmpG:mode>RGB</xmpG:mode>
                           <xmpG:red>239</xmpG:red>
                           <xmpG:green>84</xmpG:green>
                           <xmpG:blue>75</xmpG:blue>
                        </rdf:li>
                        <rdf:li rdf:parseType="Resource">
                           <xmpG:swatchName>t_black</xmpG:swatchName>
                           <xmpG:type>PROCESS</xmpG:type>
                           <xmpG:tint>100.000000</xmpG:tint>
                           <xmpG:mode>RGB</xmpG:mode>
                           <xmpG:red>0</xmpG:red>
                           <xmpG:green>0</xmpG:green>
                           <xmpG:blue>0</xmpG:blue>
                        </rdf:li>
                     </rdf:Seq>
                  </xmpG:Colorants>
               </rdf:li>
            </rdf:Seq>
         </xmpTPg:SwatchGroups>
      </rdf:Description>
   </rdf:RDF>
</x:xmpmeta>
                                                                                                    
                                                                                                    
                                                                                                    
                                                                                                    
                                                                                                    
                                                                                                    
                                                                                                    
                                                                                                    
                                                                                                    
                                                                                                    
                                                                                                    
                                                                                                    
                                                                                                    
                                                                                                    
                                                                                                    
                                                                                                    
                                                                                                    
                                                                                                    
                                                                                                    
                                                                                                    
                           
<?xpacket end="w"?>
	</metadata>
<g>
	<g>
		<g>
			<polygon style="fill:#FFFFFF;" points="87.816,92.902 116.1,92.902 101.959,106.897 87.816,120.892 			"/>
			<polygon style="fill:#FFFFFF;" points="204.643,209.729 176.359,209.729 190.5,195.735 204.643,181.739 			"/>
			<polygon style="fill:#FFFFFF;" points="204.643,92.902 204.643,120.892 190.5,106.897 176.359,92.902 			"/>
			<polygon style="fill:#FFFFFF;" points="87.816,209.729 87.816,181.739 101.959,195.735 116.1,209.729 			"/>
			<polygon style="fill:#FFFFFF;" points="287.704,115.681 296.208,115.681 301.41,153.962 293.131,153.962 290.11,131.85 
				282.221,153.962 274.838,153.962 266.95,131.85 263.928,153.962 255.257,153.962 260.46,115.681 268.963,115.681 278.53,141.016 
							"/>
			<path style="fill:#FFFFFF;" d="M314.34,126.349c1.846-0.722,3.748-1.111,5.818-1.111c2.014,0,3.972,0.389,5.819,1.111
				c1.846,0.722,3.413,1.778,4.811,3.056c1.399,1.279,2.517,2.834,3.301,4.667c0.838,1.833,1.23,3.779,1.23,5.889
				c0,2.112-0.392,4.111-1.23,5.889c-0.839,1.834-1.959,3.389-3.301,4.667c-1.398,1.278-3.022,2.334-4.811,3.057
				c-1.847,0.722-3.748,1.11-5.819,1.11c-2.013,0-3.972-0.388-5.818-1.11c-1.846-0.723-3.413-1.779-4.811-3.057
				c-1.398-1.278-2.518-2.833-3.301-4.667c-0.839-1.833-1.231-3.778-1.231-5.889c0-2.111,0.392-4.111,1.231-5.889
				c0.839-1.833,1.958-3.388,3.301-4.667C310.871,128.127,312.494,127.071,314.34,126.349 M317.36,145.962
				c0.896,0.333,1.79,0.5,2.742,0.5s1.901-0.167,2.741-0.5c0.896-0.334,1.623-0.778,2.294-1.278
				c0.671-0.556,1.175-1.223,1.567-2.001c0.391-0.778,0.559-1.667,0.559-2.612c0-0.944-0.168-1.833-0.559-2.611
				c-0.392-0.778-0.896-1.5-1.567-2c-0.671-0.556-1.455-1-2.294-1.279c-0.895-0.333-1.79-0.499-2.741-0.499
				s-1.902,0.166-2.742,0.499c-0.895,0.334-1.622,0.778-2.293,1.279c-0.672,0.556-1.176,1.222-1.567,2
				c-0.392,0.778-0.559,1.667-0.559,2.611c0,0.945,0.167,1.834,0.559,2.612c0.391,0.778,0.895,1.5,1.567,2.001
				C315.738,145.183,316.466,145.628,317.36,145.962"/>
			<path style="fill:#FFFFFF;" d="M361.546,126.015v27.947h-7.887v-8.112h-1.008l-5.482,8.112h-9.008l6.211-9.168
				c-1.567-0.889-2.797-2.055-3.636-3.5c-0.839-1.444-1.287-3.222-1.287-5.222c0-1.611,0.279-3,0.838-4.279
				c0.56-1.222,1.287-2.278,2.294-3.167c0.951-0.833,2.126-1.501,3.413-1.944c1.287-0.445,2.741-0.667,4.252-0.667H361.546z
				 M350.078,133.626c-0.951,0-1.622,0.223-2.126,0.723c-0.503,0.5-0.727,1.11-0.727,1.832c0,0.723,0.28,1.279,0.784,1.722
				c0.559,0.445,1.23,0.667,2.014,0.667h3.58v-4.945H350.078z"/>
			<polygon style="fill:#FFFFFF;" points="253.131,171.796 283.005,171.796 283.005,180.408 272.095,180.408 272.095,210.021 
				263.983,210.021 263.983,180.408 253.075,180.408 253.075,171.796 			"/>
			<path style="fill:#FFFFFF;" d="M294.197,221.412h-7.888v-39.28h7.608v2.889c0.504-1.056,1.455-1.89,2.91-2.612
				c1.454-0.722,3.244-1.055,5.482-1.055c1.846,0,3.636,0.333,5.315,1.055c1.678,0.722,3.189,1.722,4.476,3.001
				c1.287,1.278,2.293,2.834,3.076,4.666c0.784,1.833,1.176,3.834,1.176,6c0,2.223-0.392,4.222-1.176,6
				c-0.783,1.834-1.79,3.389-3.076,4.667c-1.287,1.279-2.798,2.278-4.476,3.001c-1.679,0.722-3.469,1.055-5.315,1.055
				c-2.014,0-3.748-0.333-5.203-1.055c-1.454-0.723-2.405-1.556-2.909-2.612V221.412z M294.197,199.355
				c0.392,0.944,1.23,1.667,2.461,2.278c1.231,0.611,2.685,0.888,4.307,0.888c2.182,0,3.973-0.611,5.315-1.833
				c1.399-1.222,2.07-2.778,2.07-4.612c0-1.889-0.672-3.444-2.07-4.611c-1.398-1.222-3.133-1.833-5.315-1.833
				c-1.622,0-3.021,0.277-4.307,0.888c-1.231,0.611-2.07,1.389-2.461,2.278V199.355z"/>
			<path style="fill:#FFFFFF;" d="M348.516,196.131v1.501c0,0.556-0.056,0.944-0.112,1.278h-20.42
				c0.392,1.501,1.287,2.611,2.63,3.278c1.342,0.667,2.965,1.056,4.811,1.056c1.734,0,3.356-0.279,4.979-0.889
				c1.566-0.611,2.797-1.445,3.636-2.612l2.517,6.001c-1.063,1.555-2.517,2.777-4.531,3.722c-1.959,0.889-4.252,1.333-6.825,1.333
				c-2.126,0-4.14-0.333-6.042-1c-1.901-0.666-3.524-1.667-4.867-2.945c-1.343-1.278-2.406-2.834-3.245-4.611
				c-0.783-1.833-1.175-3.834-1.175-6.112c0-2,0.336-3.889,1.007-5.667c0.671-1.777,1.678-3.388,2.964-4.723
				c1.288-1.333,2.853-2.444,4.644-3.222c1.79-0.778,3.86-1.222,6.098-1.222c2.126,0,4.028,0.389,5.762,1.222
				c1.734,0.833,3.189,1.889,4.419,3.278c1.231,1.39,2.182,2.945,2.853,4.723C348.18,192.353,348.516,194.187,348.516,196.131
				 M340.571,193.075c-0.279-1.333-1.007-2.389-2.126-3.056c-1.118-0.667-2.461-1-3.916-1c-1.509,0-2.909,0.334-4.084,1
				s-1.958,1.666-2.35,3.056H340.571z"/>
			<polygon style="fill:#FFFFFF;" points="375.764,190.242 367.485,190.242 367.485,210.078 359.597,210.078 359.597,190.242 
				351.317,190.242 351.317,182.132 375.709,182.132 375.709,190.242 			"/>
			<path style="fill:#FFFFFF;" d="M380.398,210.077v-27.946h7.888v7.333h3.356c1.567,0,3.022,0.222,4.364,0.667
				c1.343,0.445,2.461,1.111,3.413,2c0.951,0.889,1.679,1.945,2.238,3.278c0.559,1.278,0.783,2.778,0.783,4.389
				c0,1.668-0.279,3.112-0.838,4.39c-0.56,1.278-1.287,2.334-2.294,3.223c-0.951,0.889-2.126,1.5-3.413,1.944
				c-1.342,0.445-2.741,0.667-4.307,0.667h-11.189V210.077z M391.811,202.466c0.951,0,1.734-0.278,2.238-0.834
				c0.559-0.555,0.783-1.222,0.783-1.943c0-0.834-0.279-1.445-0.839-1.945c-0.559-0.5-1.287-0.722-2.181-0.722h-3.469v5.445H391.811
				z"/>
			<path style="fill:#FFFFFF;" d="M428.459,182.131v27.947h-7.888v-8.112h-1.007l-5.482,8.112h-9.008l6.21-9.168
				c-1.566-0.888-2.797-2.056-3.636-3.5s-1.287-3.222-1.287-5.223c0-1.611,0.28-3,0.839-4.278c0.559-1.222,1.287-2.278,2.294-3.167
				c0.95-0.833,2.126-1.5,3.412-1.944c1.288-0.445,2.742-0.667,4.252-0.667H428.459z M416.934,189.743
				c-0.951,0-1.622,0.222-2.126,0.722c-0.503,0.5-0.727,1.111-0.727,1.833s0.279,1.278,0.783,1.722
				c0.559,0.445,1.23,0.667,2.014,0.667h3.58v-4.945H416.934z"/>
			<polygon style="fill:#FFFFFF;" points="435.503,182.131 443.391,182.131 443.391,192.076 452.678,182.131 463.083,182.131 
				450.664,195.409 464.258,210.077 453.796,210.077 443.447,198.965 443.447,210.077 435.558,210.077 435.558,182.131 			"/>
			<path style="fill:#FFFFFF;" d="M472.432,182.465c1.846-0.723,3.748-1.111,5.818-1.111c2.014,0,3.972,0.388,5.818,1.111
				c1.847,0.722,3.414,1.778,4.811,3.056c1.399,1.278,2.518,2.834,3.302,4.667c0.839,1.833,1.23,3.778,1.23,5.888
				c0,2.112-0.391,4.112-1.23,5.89c-0.839,1.833-1.959,3.389-3.302,4.667c-1.398,1.278-3.021,2.334-4.811,3.056
				c-1.846,0.722-3.748,1.111-5.818,1.111c-2.014,0-3.972-0.389-5.818-1.111c-1.847-0.722-3.413-1.778-4.812-3.056
				c-1.398-1.278-2.517-2.834-3.3-4.667c-0.839-1.833-1.231-3.779-1.231-5.89c0-2.111,0.392-4.111,1.231-5.888
				c0.838-1.833,1.958-3.389,3.3-4.667C469.019,184.243,470.585,183.187,472.432,182.465 M475.452,202.077
				c0.895,0.334,1.79,0.5,2.741,0.5c0.952,0,1.902-0.166,2.742-0.5c0.896-0.334,1.622-0.778,2.294-1.278
				c0.671-0.556,1.175-1.222,1.567-2c0.391-0.778,0.559-1.667,0.559-2.612c0-0.945-0.168-1.833-0.559-2.611
				c-0.392-0.778-0.896-1.501-1.567-2.001c-0.672-0.556-1.455-1-2.294-1.278c-0.895-0.333-1.79-0.5-2.742-0.5
				c-0.95,0-1.901,0.167-2.741,0.5c-0.895,0.334-1.622,0.778-2.294,1.278c-0.671,0.556-1.175,1.223-1.566,2.001
				c-0.392,0.778-0.559,1.666-0.559,2.611c0,0.945,0.167,1.834,0.559,2.612c0.391,0.778,0.895,1.5,1.566,2
				C473.83,201.3,474.613,201.744,475.452,202.077"/>
			<path style="fill:#FFFFFF;" d="M509.517,182.131c1.455,0,2.797,0.166,4.084,0.5c1.287,0.333,2.406,0.834,3.356,1.444
				c0.952,0.667,1.735,1.501,2.294,2.556c0.559,1.056,0.839,2.278,0.839,3.722c0,1.111-0.168,2-0.559,2.666
				c-0.336,0.667-0.784,1.279-1.343,1.89c0.951,0.722,1.734,1.555,2.462,2.611c0.672,1,1.063,2.278,1.063,3.89
				c0,1.445-0.279,2.723-0.895,3.834c-0.616,1.11-1.399,2-2.35,2.722c-1.008,0.722-2.126,1.278-3.413,1.611
				c-1.287,0.334-2.63,0.556-4.028,0.556h-12.307v-27.947h10.797V182.131z M510.188,193.187c0.784,0,1.398-0.222,1.79-0.611
				c0.392-0.389,0.616-0.888,0.616-1.39c0-0.444-0.168-0.889-0.56-1.333c-0.391-0.444-1.007-0.667-1.846-0.667h-4.028v4.056h4.028
				V193.187z M511.866,203.077c0.616,0,1.119-0.222,1.51-0.611c0.392-0.389,0.616-0.889,0.616-1.501
				c0-0.445-0.168-0.944-0.559-1.389c-0.336-0.445-0.896-0.667-1.679-0.667h-5.707v4.167H511.866z"/>
			<polygon style="fill:#FFFFFF;" points="526.809,182.131 534.697,182.131 534.697,192.076 543.984,182.131 554.389,182.131 
				541.97,195.409 555.564,210.077 545.102,210.077 534.753,198.965 534.753,210.077 526.865,210.077 526.865,182.131 			"/>
			<path style="fill:#FFFFFF;" d="M557.857,186.075c0.447-0.723,1.119-1.39,1.959-2.001c0.838-0.61,1.734-1.055,2.741-1.5
				c1.008-0.389,2.07-0.722,3.189-0.945c1.119-0.222,2.181-0.334,3.244-0.334c1.847,0,3.525,0.223,5.091,0.723
				c1.51,0.5,2.797,1.222,3.916,2.166c1.063,0.945,1.958,2.167,2.573,3.556c0.616,1.39,0.895,3.001,0.895,4.834v17.446h-7.608v-2.39
				c-0.671,1.056-1.734,1.833-3.133,2.39c-1.398,0.555-2.853,0.833-4.364,0.833c-1.343,0-2.63-0.223-3.86-0.667
				c-1.175-0.445-2.238-1.056-3.133-1.89c-0.895-0.778-1.622-1.778-2.126-2.889c-0.503-1.11-0.783-2.389-0.783-3.778
				c0-1.5,0.28-2.834,0.895-3.945c0.616-1.167,1.399-2.111,2.462-2.888c1.007-0.778,2.181-1.334,3.468-1.778
				c1.287-0.389,2.629-0.612,4.028-0.612c2.07,0,3.58,0.223,4.587,0.667c0.951,0.444,1.51,0.833,1.678,1.055v-0.722
				c0-1.5-0.559-2.555-1.622-3.222c-1.063-0.667-2.35-1-3.86-1c-1.734,0-3.356,0.277-4.867,0.889
				c-1.51,0.611-2.685,1.333-3.468,2.222L557.857,186.075z M573.522,199.909c-0.168-0.388-0.671-0.778-1.455-1.111
				c-0.783-0.334-1.79-0.5-2.909-0.5c-1.622,0-2.797,0.278-3.581,0.778c-0.783,0.499-1.174,1.167-1.174,2
				c0,0.889,0.391,1.555,1.23,2.055c0.839,0.5,1.958,0.723,3.413,0.723c1.118,0,2.126-0.223,2.853-0.611
				c0.783-0.389,1.287-0.834,1.566-1.39v-1.944H573.522z"/>
		</g>
	</g>
</g>
</svg>
