<svg width="40" height="32" viewBox="0 0 40 32" fill="none" xmlns="http://www.w3.org/2000/svg">
<path d="M11.2195 0.682962V4.97564L10.6341 5.0732C8.48779 5.46344 6.34146 6.04881 4.29268 6.78052C4.29268 7.8049 4.29268 28.3902 4.29268 28.3902L3.31707 28.0488C2.2439 27.7073 0.975609 27.2683 0 26.8781V27.4634L0.439024 27.6585C1.60975 28.1463 3.02439 28.6829 4.2439 29.0732L5.21951 29.4146C5.21951 29.4146 5.21951 8.63417 5.21951 7.65856C7.26828 6.92686 9.41462 6.34149 11.561 5.95125L12.1463 5.85369V0.536621C12.1951 0.536621 11.2195 0.634182 11.2195 0.682962Z" fill="#BDBDBD"/>
<path d="M13.1706 22.4391C13.1706 22.2927 13.2194 22.1464 13.2194 22.0001C13.2194 22.0001 13.2194 21.6098 13.2194 21.2196C11.2194 21.0244 9.46329 20.0976 8.24377 18.683C9.21938 20.5366 11.0243 21.9513 13.1706 22.4391Z" fill="#BDBDBD"/>
<path d="M18.39 0.0487804C18.2924 0.0487804 18.2436 0.0487804 18.1461 0.0487804V22.0488C18.1461 26.2927 14.6826 29.7561 10.4388 29.7561C9.90217 29.7561 9.36558 29.7073 8.87778 29.6097C8.5851 29.5609 7.56071 29.317 6.97534 29.2195V29.9512L7.75583 30.1463C8.19485 30.2926 9.46314 30.5853 9.85339 30.6341C15.1217 31.4146 19.1217 27.2195 19.1217 22.3902V0L18.39 0.0487804Z" fill="#BDBDBD"/>
<path d="M11.2196 13.561C11.2196 14.5854 11.7562 15.4635 12.5855 15.9025C12.3416 15.5122 12.1952 15.0244 12.1952 14.5366V7.56104L11.3172 7.75616C11.2684 7.75616 11.2684 7.75616 11.2196 7.75616V13.561Z" fill="#BDBDBD"/>
<path d="M39.6585 4.58548C39.4633 4.48792 39.2682 4.34158 39.0243 4.24402V26.4879L38.5853 26.683C37.4146 27.1708 36.0975 27.6098 34.9268 28.0001C34.9268 28.8294 34.9268 29.122 34.9268 29.122L36.0487 28.7806C37.2194 28.3903 38.4389 27.9513 39.5609 27.4635L39.9999 27.2684V4.82938L39.6585 4.58548Z" fill="#BDBDBD"/>
<path d="M25.1217 5.95105C25.1217 8.58519 25.1217 30.2925 25.1217 30.2925L24.4388 30.3413C23.3656 30.4388 21.9998 30.5364 20.8778 30.5852V31.4144L21.9022 31.3657C23.0729 31.3169 24.2437 31.2193 25.4144 31.1218L26.0973 31.073C26.0973 31.073 26.0973 10.4876 26.0973 7.17056C25.8534 6.73154 25.5119 6.29251 25.1217 5.95105Z" fill="#BDBDBD"/>
<path d="M34.0977 7.31714C32.9757 7.6586 32.0977 8.68299 32.0977 9.95128V28.9757L31.5123 29.122C30.3903 29.4147 28.9757 29.6586 27.8538 29.8537V30.8293L28.9757 30.683C30.1464 30.4878 31.366 30.2439 32.4879 29.9513L33.0733 29.8049V10.683C33.0733 9.85372 33.4635 9.07323 34.0489 8.58543C34.0977 7.85372 34.0977 7.56104 34.0977 7.31714Z" fill="#BDBDBD"/>
<path d="M3.46341 27.3657C2.29268 26.9755 1.12195 26.5365 0 26.0487V3.85356C3.31707 2.48771 6.82926 1.41454 10.439 0.780396V4.34137C8.04877 4.78039 5.70731 5.41454 3.46341 6.2438V27.3657Z" fill="#221F1A"/>
<path d="M17.4144 0.0488281C16.2437 0.0976086 15.0729 0.146389 13.951 0.29273V17.0244C12.0486 17.0244 10.4876 15.4634 10.4876 13.561C10.4876 12.9269 10.4876 13.561 10.4876 7.8537C9.31685 8.0976 8.14612 8.39028 7.02417 8.73174V13.561C7.02417 17.4147 10.1461 20.5366 13.9998 20.5366V22.0488C13.9998 23.9512 12.4388 25.5122 10.5364 25.5122C10.2925 25.5122 10.0486 25.4634 9.80465 25.4147C9.80465 25.4147 8.09734 25.0732 7.07295 24.7805V28.3903C7.56075 28.5366 8.97539 28.8293 9.12173 28.8781C9.56075 28.9756 10.0486 29.0244 10.5364 29.0244C14.39 29.0244 17.512 25.9025 17.512 22.0488V0.0488281" fill="#221F1A"/>
<path d="M34.829 2.97565C32.8778 2.97565 31.1217 3.80492 29.8534 5.07321C27.9998 2.04883 24.6827 0.0488281 20.8778 0.0488281V29.8537C22.0485 29.8049 23.2193 29.7561 24.3412 29.6098V4.48785C26.4388 5.70736 27.8046 7.95126 27.8046 10.5366V29.1707C28.9754 28.9756 30.1461 28.7317 31.268 28.439V9.95125C31.268 8.04882 32.829 6.48784 34.7314 6.48784V27.3659C35.9022 26.9756 37.0729 26.5366 38.1949 26.0488V3.90248C37.268 3.31712 36.0973 2.97565 34.829 2.97565Z" fill="#221F1A"/>
</svg>
