<svg width="25" height="25" viewBox="0 0 25 25" fill="none" xmlns="http://www.w3.org/2000/svg">
<circle cx="12.5" cy="12.5" r="12" stroke="#221F1A"/>
<path d="M13.8807 8.6C14.5632 8.6 15.0357 8.0225 15.0357 7.3925C15.0357 6.9725 14.7382 6.6225 14.2482 6.6225C13.6007 6.6225 13.0757 7.1475 13.0757 7.83C13.0757 8.3025 13.4082 8.6 13.8807 8.6ZM10.3457 16.615C9.76822 18.015 9.68072 18.9075 10.6607 18.9075C11.6932 18.9075 12.8132 17.7525 13.7407 16.2825C13.8107 16.1775 13.8107 16.1075 13.7407 16.0725L13.5832 15.9675C13.4957 15.915 13.4082 15.9325 13.3557 16.02C12.8832 16.7375 12.1307 17.6125 11.7282 17.6125C11.5357 17.6125 11.4482 17.455 11.5707 17.0875C12.1307 15.705 13.0057 13.675 13.6182 12.135C14.1607 10.7525 14.0907 9.8775 13.3032 9.8775C12.2357 9.8775 11.0457 11.085 10.1532 12.5375C10.1007 12.625 10.1007 12.7125 10.1707 12.765L10.3107 12.87C10.3982 12.9225 10.4857 12.905 10.5382 12.8175C11.1157 12.065 11.7457 11.225 12.1657 11.225C12.3757 11.225 12.4282 11.3825 12.3232 11.715C11.9557 12.7825 10.9582 15.18 10.3457 16.615Z" fill="#221F1A"/>
</svg>
