<svg width="39" height="52" viewBox="0 0 39 52" fill="none" xmlns="http://www.w3.org/2000/svg">
<path d="M12.826 12.0705C14.608 7.6819 14.6469 1 14.6469 1C14.6469 1 14.6469 8.54258 16.1035 11.219C19.6895 17.8076 29.0316 19.3698 33.341 26.0608C35.7978 29.8753 35.2588 32.3974 34.2514 35.7932C32.2485 42.545 25.3899 45.0389 25.3899 45.0389L22.9621 45.4038C22.9621 45.4038 25.6327 43.3357 24.783 38.0438C23.722 31.4364 20.9441 28.4977 15.9215 24.7226C15.1931 24.1752 9.97079 21.2733 10.034 17.6666C10.078 15.1588 12.0428 13.9992 12.826 12.0705Z" fill="#221F1A" stroke="#221F1A"/>
<path d="M1.05102 44.1873L2.81119 44.6739C2.81119 44.6739 6.23267 45.3876 8.45584 45.6137C10.6741 45.8392 14.1612 45.8297 14.1612 45.8297H14.8895C14.8895 45.8297 17.3073 45.852 18.8954 45.7688C20.4835 45.6857 23.0227 45.4039 23.0227 45.4039L25.3291 45.0389C25.3291 45.0389 27.078 44.7121 28.1818 44.4306C29.3083 44.1434 29.9631 44.0311 31.0345 43.5791C34.8968 41.9495 38.5 35.854 38.5 35.854L33.9175 45.7992C33.3131 47.1651 32.127 49.2968 32.127 49.2968C32.127 49.2968 31.5622 48.5275 30.2454 48.5669C27.8772 48.6378 26.4911 50.5691 23.569 50.8783C20.848 51.1663 21.3232 50.1484 16.8318 50.27C13.8639 50.3504 13.6921 51.0068 11.1871 51C9.61826 50.9957 7.67365 50.8997 6.4529 50.6958C5.23216 50.4919 2.50771 49.9659 2.44701 49.6618C2.28439 48.8468 1.67765 48.6299 1.3545 47.837C0.816079 46.5159 1.05102 44.1873 1.05102 44.1873Z" fill="#221F1A"/>
<path d="M32.127 49.2968C32.127 49.2968 31.5622 48.5275 30.2454 48.5669C27.8772 48.6378 26.4911 50.5691 23.569 50.8783C20.848 51.1663 21.3232 50.1484 16.8318 50.27C13.8639 50.3504 13.6921 51.0068 11.1871 51C9.61826 50.9957 7.67365 50.8997 6.4529 50.6958C5.23216 50.4919 2.50771 49.9659 2.44701 49.6618C2.28439 48.8468 1.67765 48.6299 1.3545 47.837C0.816079 46.5159 1.05102 44.1873 1.05102 44.1873L2.81119 44.6739C2.81119 44.6739 6.23267 45.3876 8.45584 45.6137C10.6741 45.8392 14.1612 45.8297 14.1612 45.8297H14.8895C14.8895 45.8297 17.3073 45.852 18.8954 45.7688C20.4835 45.6857 23.0227 45.4039 23.0227 45.4039L25.3291 45.0389C25.3291 45.0389 27.078 44.7121 28.1818 44.4306C29.3083 44.1434 29.9631 44.0311 31.0345 43.5791C34.8968 41.9495 38.5 35.854 38.5 35.854L33.9175 45.7992M32.127 49.2968C32.127 49.2968 33.3131 47.1651 33.9175 45.7992M32.127 49.2968L33.9175 45.7992" stroke="#221F1A"/>
<path d="M13.8674 47.2288L14.1102 22.533L14.5958 22.9587L14.8386 47.2288H13.8674Z" fill="#221F1A" stroke="#221F1A"/>
<path d="M38.4489 35.9148L34.5037 32.6909" stroke="#221F1A" stroke-width="0.2"/>
<path d="M2.57812 44.7955L12.1073 20.5863" stroke="#221F1A" stroke-width="0.2"/>
</svg>
